<svg width="340" height="300" viewBox="0 0 340 300" fill="none" xmlns="http://www.w3.org/2000/svg">
<path d="M16.5709 0H190C272.843 0 340 67.1573 340 150V150C340 232.843 272.843 300 190 300H132.48C60.7917 300 -27.9654 247.361 15.2175 190.138C26.8511 174.722 46.3652 161.191 77.7123 152.5C203.4 117.652 133.462 14.5843 16.5709 0Z" fill="#EFE49E"/>
<path d="M163.461 156.037C161.984 161.089 135.309 202.265 133.915 207.381C128.5 227.222 149.063 210.637 145.125 229.812C145.207 230.457 145.535 231.488 146.766 232.52C147.997 233.574 149.637 234.111 150.417 234.39C157.882 237.185 161.615 238.604 165.389 239.549C183.479 244.128 203.497 243.591 203.497 243.591C207.722 243.483 216.131 243.204 225.155 241.312C225.648 241.205 229.093 240.366 235.985 238.668C242.22 237.142 243.327 236.841 244.845 236.11C248.455 234.369 249.85 232.219 250.793 230.693C252.803 227.447 259.448 224.696 259.366 224.029C259.366 224.029 276.284 238.636 275.996 207.381C275.955 201.018 252.967 171.708 259.366 160.165C252.721 158.466 246.486 156.897 238.979 155.006C233.811 153.694 229.011 152.491 222.12 152.061C220.151 151.932 218.387 151.889 215.762 151.91C205.097 151.953 196.318 152.813 192.544 153.157C185.202 153.78 175.275 154.726 163.461 156.037Z" fill="#4F827B"/>
<path d="M163.134 156.79C175.85 155.371 188.689 154.232 201.57 153.393C202.144 153.35 202.472 152.964 201.898 152.792C201.734 152.749 201.57 152.684 201.365 152.641C200.667 152.426 200.052 152.985 200.749 153.2C200.913 153.243 201.077 153.307 201.283 153.35C201.406 153.157 201.488 152.942 201.611 152.749C188.607 153.587 175.645 154.726 162.847 156.166C162.026 156.252 162.354 156.876 163.134 156.79Z" fill="#161616"/>
<path d="M159.319 168.054C154.807 184.907 150.705 201.781 147.013 218.698C146.562 220.826 146.11 222.933 145.659 225.061C145.29 226.91 144.264 228.995 144.716 230.844C145.126 232.477 147.587 233.509 149.843 234.498C152.304 235.573 154.889 236.583 157.596 237.507C168.712 241.269 181.716 243.526 194.924 243.935C210.635 244.408 226.428 242.301 239.841 238.002C240.497 237.787 239.882 237.228 239.226 237.443C215.762 244.945 185.9 245.246 161.985 238.131C159.237 237.314 156.57 236.411 154.027 235.422C151.443 234.412 147.259 233.036 146.192 231.381C145.7 230.586 145.946 229.704 146.11 228.866C146.315 227.813 146.562 226.738 146.767 225.685C147.177 223.707 147.587 221.729 148.038 219.752C149.802 211.691 151.607 203.651 153.576 195.612C155.791 186.476 158.088 177.34 160.549 168.226C160.631 167.817 159.442 167.645 159.319 168.054Z" fill="#161616"/>
<path d="M219.741 151.867C226.961 152.62 233.729 154.361 240.456 155.844C247.06 157.306 254.403 158.488 260.228 160.724C260.884 160.96 261.5 160.401 260.843 160.165C255.141 157.972 247.963 156.811 241.523 155.393C234.549 153.866 227.535 152.039 220.069 151.244C219.29 151.158 218.962 151.781 219.741 151.867Z" fill="#161616"/>
<path d="M251.901 188.325C251.244 197.374 250.588 206.424 251.203 215.453C251.49 219.838 252.803 224.395 251.244 228.759C249.932 232.348 246.076 235.938 239.225 237.271C238.487 237.422 238.815 238.045 239.553 237.894C250.465 235.766 253.295 229.253 253.131 223.793C253.049 220.096 252.434 216.398 252.27 212.68C252.106 208.896 252.188 205.135 252.311 201.351C252.475 197.009 252.803 192.667 253.09 188.325C253.172 187.895 251.942 187.895 251.901 188.325Z" fill="#161616"/>
<path d="M161.699 91.9983C162.062 96.0008 162.714 101.612 164.164 108.233C165.106 112.534 165.686 115.265 166.918 118.669C168.767 123.794 172.282 133.594 181.452 139.991C183.663 141.562 187.323 143.656 192.47 144.891C193.303 144.966 194.137 145.078 194.97 145.153C195.26 146.724 195.623 149.043 195.985 151.848C196.855 159.068 196.42 161.275 198.232 163.22C200.443 165.576 203.959 165.352 204.72 165.277C210.772 164.866 213.817 158.656 213.962 158.32C212.983 156.487 212.005 154.242 211.207 151.624C209.468 145.826 209.431 140.664 209.721 137.148C212.512 132.996 215.593 129.816 218.71 127.347C219.906 126.412 220.92 125.14 222.696 124.504C225.233 123.607 226.538 124.504 228.423 123.906C231.54 122.896 232.881 118.744 233.461 117.023C235.671 110.215 232.953 103.482 231.214 99.4796C229.655 95.8138 225.596 86.724 215.701 79.6168C205.517 72.2852 185.149 64.1307 171.666 74.7166C169.347 76.5495 164.055 81.4497 161.699 91.9983Z" fill="white"/>
<path d="M163.221 107.41C160.902 106.998 155.03 105.577 151.225 100.377C145.426 92.4847 148.543 81.4499 151.769 75.6145C156.843 66.45 166.085 63.2704 177.682 59.2679C184.569 56.9114 191.129 54.667 200.044 55.041C204.973 55.2655 221.681 56.0136 231.685 68.844C237.628 76.4374 238.281 84.592 239.586 100.677C240.202 108.046 239.73 112.048 238.498 115.864C237.592 118.632 234.656 127.497 226.212 131.051C221.79 132.921 217.695 132.547 215.448 132.173C217.477 129.068 219.507 126.001 221.573 122.896C222.732 122.971 226.864 123.046 230.017 120.091C234.33 116.013 235.091 107.896 231.938 105.727C229.619 104.118 225.016 105.689 221.029 109.392C220.667 107.036 220.087 104.455 219.108 101.799C214.542 89.1181 204.611 82.1606 199.754 79.2803C197.834 81.8239 191.745 89.2678 180.944 92.2229C172.391 94.5421 165.287 92.8962 162.134 91.9236C162.497 97.0857 162.859 102.248 163.221 107.41Z" fill="#E9D038"/>
<path d="M161.409 92.9713C162.895 104.53 164.454 116.537 169.927 126.936C174.421 135.465 181.669 142.759 190.984 145.19C191.673 145.377 191.962 144.293 191.274 144.106C182.068 141.674 174.964 134.343 170.615 125.851C165.432 115.752 163.947 104.156 162.497 92.9713C162.388 92.2606 161.301 92.2606 161.409 92.9713Z" fill="#161616"/>
<path d="M190.983 145.34C197.543 145.34 204.429 141.711 209.576 137.821C214.759 133.893 218.999 128.843 222.043 123.008C222.37 122.372 221.427 121.811 221.101 122.447C218.165 128.133 214.07 133.07 209.032 136.848C203.994 140.664 197.326 144.217 190.983 144.217C190.258 144.217 190.258 145.34 190.983 145.34Z" fill="#161616"/>
<path d="M209.54 136.923C208.815 144.479 210.228 152.035 213.563 158.806C213.889 159.442 214.831 158.881 214.505 158.245C211.243 151.624 209.939 144.292 210.627 136.923C210.7 136.212 209.612 136.212 209.54 136.923Z" fill="#161616"/>
<path d="M193.775 145.152C194.971 149.417 195.949 153.756 196.674 158.132C197.145 161.05 197.327 164.342 200.48 165.427C205.191 167.073 212.15 164.155 213.962 159.329C214.216 158.656 213.165 158.357 212.911 159.03C211.896 161.761 209.359 163.257 206.75 164.043C204.575 164.679 201.277 165.352 199.429 163.519C198.341 162.434 198.196 160.713 197.979 159.255C197.725 157.721 197.472 156.187 197.182 154.654C196.529 151.362 195.768 148.07 194.862 144.853C194.645 144.18 193.594 144.479 193.775 145.152Z" fill="#161616"/>
<path d="M195.333 149.791C201.784 148.931 206.025 143.843 209.141 138.382C209.504 137.746 208.562 137.185 208.199 137.821C205.336 142.908 201.349 147.883 195.333 148.669C194.644 148.781 194.644 149.903 195.333 149.791Z" fill="#161616"/>
<path d="M195.079 145.976C200.117 145.377 204.647 142.946 208.018 139.018C208.489 138.494 207.728 137.671 207.257 138.233C204.104 141.936 199.827 144.292 195.079 144.853C194.427 144.928 194.391 146.05 195.079 145.976Z" fill="#161616"/>
<path d="M195.26 145.153C199.32 144.554 202.98 142.834 206.097 140.103C206.641 139.617 205.843 138.831 205.336 139.318C202.364 141.936 198.848 143.544 194.97 144.106C194.282 144.18 194.572 145.265 195.26 145.153Z" fill="#161616"/>
<path d="M195.043 146.088C195.224 146.986 195.188 148.781 196.275 149.08C197.326 149.38 198.921 148.108 199.755 147.584C202.618 145.789 205.01 143.357 206.894 140.514C207.293 139.916 206.351 139.355 205.952 139.953C204.611 142.011 202.98 143.843 201.059 145.34C200.153 146.05 199.211 146.649 198.232 147.21C197.834 147.434 196.928 148.07 196.529 147.809C196.275 147.659 196.167 146.05 196.13 145.789C195.949 145.078 194.898 145.377 195.043 146.088Z" fill="#161616"/>
<path d="M195.55 147.135C198.667 145.826 201.603 144.18 204.357 142.197C204.937 141.786 204.394 140.813 203.814 141.225C201.132 143.17 198.305 144.778 195.26 146.05C194.608 146.312 194.898 147.397 195.55 147.135Z" fill="#161616"/>
<path d="M196.094 148.258C199.574 146.986 202.618 145.003 205.155 142.235C205.626 141.712 204.865 140.926 204.394 141.45C201.966 144.031 199.102 145.976 195.804 147.173C195.152 147.435 195.442 148.519 196.094 148.258Z" fill="#161616"/>
<path d="M196.674 147.659C199.247 146.499 201.603 144.928 203.633 142.908C204.14 142.422 203.379 141.637 202.872 142.123C200.878 144.068 198.631 145.564 196.13 146.686C195.478 146.986 196.022 147.958 196.674 147.659Z" fill="#161616"/>
<path d="M167.063 121.4C161.155 119.23 159.198 111.263 159.778 105.502C160.394 99.1806 165.903 92.2978 172.644 95.2529C175.87 96.6744 177.066 100.34 177.936 103.595C178.842 107.036 179.241 110.851 178.371 114.368C177.61 117.472 175.761 120.427 172.862 121.774C169.962 123.121 166.519 122.372 164.562 119.791C164.127 119.23 163.366 120.016 163.801 120.577C167.099 124.953 173.297 124.093 176.631 120.24C180.872 115.34 180.437 107.896 178.625 102.023C177.791 99.2928 176.704 96.4499 174.275 94.8789C172.173 93.4948 169.491 93.1582 167.135 93.7941C161.626 95.3277 158.763 101.35 158.655 106.849C158.546 112.871 160.829 120.315 166.846 122.485C167.425 122.709 167.715 121.624 167.063 121.4Z" fill="#161616"/>
<path d="M179.603 110.215C183.155 108.008 187.468 107.784 191.165 109.692C191.781 110.028 192.325 109.056 191.709 108.719C187.649 106.624 182.938 106.811 179.024 109.243C178.48 109.617 179.024 110.589 179.603 110.215Z" fill="#161616"/>
<path d="M196.928 118.183C192.832 114.106 191.129 107.784 192.724 102.098C194.391 96.1882 200.117 91.101 206.278 93.1957C213.092 95.5149 213.455 105.577 211.679 111.487C210.628 114.966 208.526 118.445 205.046 119.717C201.567 120.989 198.559 119.081 195.768 117.061C195.188 116.649 194.644 117.622 195.224 118.033C197.508 119.717 199.972 121.4 202.872 121.288C205.626 121.176 208.127 119.605 209.83 117.472C213.672 112.684 214.433 105.39 212.838 99.5548C211.389 94.2431 207.112 90.8017 201.639 91.7369C196.42 92.5972 192.579 97.46 191.419 102.547C190.078 108.42 191.89 114.779 196.094 118.969C196.674 119.492 197.435 118.669 196.928 118.183Z" fill="#161616"/>
<path d="M170.361 105.876C169.999 108.233 170.398 110.515 171.63 112.535C171.884 112.946 172.463 112.871 172.608 112.385C173.478 109.804 172.246 107.26 171.014 105.053C170.76 104.567 169.999 104.792 169.999 105.353C170.035 107.335 170.434 109.28 171.159 111.113C171.412 111.787 172.463 111.487 172.21 110.814C171.521 109.056 171.123 107.26 171.086 105.353C170.76 105.465 170.398 105.54 170.072 105.652C171.195 107.634 172.355 109.804 171.557 112.123C171.884 112.086 172.21 112.048 172.536 111.974C171.449 110.215 171.05 108.233 171.376 106.176C171.521 105.465 170.47 105.166 170.361 105.876Z" fill="#161616"/>
<path d="M202.436 104.829C202.436 104.342 202.4 104.23 202.183 103.819C201.929 103.332 201.168 103.557 201.168 104.118C201.204 106.437 201.385 108.943 203.125 110.589C203.487 110.926 203.995 110.664 204.067 110.178C204.357 107.41 203.56 104.829 201.893 102.659C201.53 102.21 200.878 102.697 200.987 103.22C201.422 105.053 201.965 106.849 202.618 108.569C202.871 109.243 203.922 108.943 203.669 108.27C202.98 106.512 202.436 104.754 202.038 102.921C201.748 103.108 201.422 103.295 201.132 103.482C202.618 105.427 203.234 107.746 202.98 110.215C203.306 110.066 203.596 109.953 203.922 109.804C202.364 108.345 202.291 106.138 202.255 104.118C201.929 104.23 201.567 104.305 201.24 104.417C201.277 104.567 201.313 104.716 201.349 104.866C201.349 105.539 202.436 105.539 202.436 104.829Z" fill="#161616"/>
<path d="M183.227 112.198C182.503 114.442 181.886 116.724 181.488 119.043C181.27 120.278 180.509 122.597 181.053 123.831C182.14 126.338 186.96 124.804 188.628 123.981C189.244 123.682 188.7 122.709 188.084 123.008C186.743 123.682 185.293 124.018 183.807 123.906C182.937 123.831 182.249 123.682 182.068 122.672C181.959 122.111 182.321 120.652 182.43 120.016C182.865 117.435 183.517 114.929 184.315 112.46C184.496 111.824 183.445 111.525 183.227 112.198Z" fill="#161616"/>
<path d="M188.7 133.781C191.418 133.407 193.774 131.612 194.97 129.031C195.26 128.395 194.318 127.796 194.028 128.469C192.941 130.826 190.911 132.36 188.41 132.696C187.722 132.809 188.048 133.893 188.7 133.781Z" fill="#161616"/>
<path d="M168.078 102.659C168.766 101.799 170.035 101.649 170.905 102.397C171.448 102.883 172.21 102.06 171.666 101.612C170.397 100.489 168.44 100.564 167.317 101.873C166.846 102.397 167.607 103.183 168.078 102.659Z" fill="#161616"/>
<path d="M199.175 100.565C200.298 99.5547 202.002 99.5547 203.125 100.527C203.669 100.976 204.43 100.191 203.886 99.7417C202.292 98.3203 199.972 98.3577 198.377 99.7791C197.87 100.265 198.667 101.051 199.175 100.565Z" fill="#161616"/>
<path d="M213.454 105.726C217.368 104.305 221.392 103.445 225.56 103.22C226.248 103.183 226.248 102.061 225.56 102.098C221.319 102.323 217.187 103.183 213.164 104.642C212.512 104.904 212.766 105.988 213.454 105.726Z" fill="#161616"/>
<path opacity="0.4" d="M218.854 59.1182C221.029 61.9985 229.401 73.8189 227.843 90.0532C226.973 99.1055 223.349 105.764 221.065 109.28C222.37 108.233 223.494 107.522 224.327 107.036C226.538 105.764 227.951 104.978 229.764 105.09C230.307 105.128 231.612 105.24 232.554 106.026C235.309 108.42 234.366 116.911 229.474 120.876C226.792 123.045 223.639 123.27 222.044 123.233C219.978 126.262 217.876 129.292 215.81 132.36C217.187 132.584 219.289 132.771 221.718 132.397C222.769 132.247 226.973 131.462 230.96 128.17C234.874 124.916 236.469 120.951 237.52 118.257C240.419 110.776 239.839 104.193 238.824 92.335C238.389 87.0607 238.136 84.3674 237.121 80.8138C236.034 76.961 234.33 71.2753 229.474 66.188C225.994 62.4474 222.08 60.3526 218.854 59.1182Z" fill="#3D3D3D"/>
<path opacity="0.48" d="M183.844 91.1008C187.468 87.7716 191.527 83.5073 195.442 78.1956C197.87 74.9038 199.899 71.7243 201.567 68.7692C200.951 72.1358 200.334 75.5024 199.754 78.8689C198.341 80.9637 195.985 83.9562 192.325 86.6868C189.099 89.0434 186.055 90.3526 183.844 91.1008Z" fill="#3D3D3D"/>
<path opacity="0.27" d="M209.613 86.8362C212.367 96.3 212.585 104.23 212.331 109.467C212.15 113.357 211.135 133.744 200.733 140.776C199.718 141.449 197.145 143.02 197.254 143.245C197.399 143.507 202.219 141.3 204.865 139.804C209.033 137.484 215.448 132.809 221.392 122.933C222.37 123.046 227.154 123.382 230.598 119.978C234.765 115.901 235.49 107.896 232.192 105.539C229.836 103.856 225.342 105.278 221.392 108.644C220.993 106.923 220.486 105.128 219.797 103.22C217.079 95.8137 212.983 90.4272 209.613 86.8362Z" fill="#3D3D3D"/>
<path opacity="0.36" d="M200.878 142.946C201.82 145.938 202.763 148.931 203.705 151.961C205.01 156.075 206.278 160.227 207.547 164.342C208.271 164.192 210.047 163.669 211.606 162.023C213.164 160.377 213.672 158.582 213.853 157.833C212.439 154.953 210.772 150.577 210.192 145.04C209.902 142.16 209.975 139.617 210.192 137.484C207.112 139.317 203.995 141.15 200.878 142.946Z" fill="#3D3D3D"/>
<path opacity="0.43" d="M182.793 113.507C180.981 117.509 179.169 121.475 177.356 125.477C180.328 125.402 183.264 125.365 186.236 125.29C184.496 124.729 182.72 124.168 180.981 123.607C181.561 120.24 182.177 116.874 182.793 113.507Z" fill="#3D3D3D"/>
</svg>
