<svg width="143" height="189" viewBox="0 0 143 189" fill="none" xmlns="http://www.w3.org/2000/svg">
<path d="M30.4602 100.802C28.9835 105.853 2.30829 147.029 0.91361 152.145C-4.50105 171.986 16.0622 155.402 12.1242 174.576C12.2063 175.221 12.5344 176.253 13.765 177.284C14.9956 178.338 16.6364 178.875 17.4158 179.155C24.8815 181.949 28.6143 183.368 32.3882 184.314C50.478 188.892 70.4959 188.355 70.4959 188.355C74.7209 188.247 83.1301 187.968 92.1545 186.076C92.6468 185.969 96.0924 185.131 102.984 183.432C109.219 181.906 110.326 181.605 111.844 180.874C115.454 179.133 116.849 176.983 117.792 175.457C119.802 172.211 126.447 169.46 126.365 168.794C126.365 168.794 143.283 183.401 142.995 152.145C142.954 145.783 119.966 116.472 126.365 104.929C119.72 103.231 113.485 101.661 105.978 99.7698C100.81 98.4586 96.0104 97.2548 89.119 96.8249C87.1501 96.6959 85.3862 96.6529 82.7609 96.6744C72.0957 96.7174 63.3173 97.5772 59.5435 97.9212C52.2009 98.5446 42.274 99.4904 30.4602 100.802Z" fill="#4F827B"/>
<path d="M30.1323 101.554C42.8485 100.135 55.6879 98.996 68.5682 98.1577C69.1425 98.1147 69.4707 97.7278 68.8964 97.5558C68.7323 97.5128 68.5682 97.4483 68.3631 97.4053C67.6658 97.1904 67.0505 97.7492 67.7478 97.9642C67.9119 98.0072 68.076 98.0717 68.2811 98.1147C68.4041 97.9212 68.4862 97.7063 68.6093 97.5128C55.6058 98.3511 42.6435 99.4904 29.8451 100.931C29.0247 101.017 29.3529 101.64 30.1323 101.554Z" fill="#161616"/>
<path d="M26.3173 112.818C21.8051 129.671 17.7031 146.545 14.0113 163.463C13.5601 165.591 13.1089 167.697 12.6577 169.825C12.2885 171.674 11.263 173.759 11.7142 175.608C12.1244 177.242 14.5856 178.273 16.8417 179.262C19.3029 180.337 21.8872 181.347 24.5945 182.272C35.7109 186.033 48.7143 188.29 61.9227 188.699C77.6334 189.172 93.4261 187.065 106.84 182.766C107.496 182.551 106.881 181.992 106.224 182.207C82.7609 189.709 52.8983 190.01 28.9836 182.895C26.2353 182.078 23.569 181.175 21.0258 180.186C18.4415 179.176 14.2574 177.8 13.1909 176.145C12.6987 175.35 12.9448 174.469 13.1089 173.63C13.314 172.577 13.5601 171.502 13.7652 170.449C14.1754 168.471 14.5856 166.494 15.0368 164.516C16.8007 156.455 18.6056 148.415 20.5745 140.376C22.7896 131.24 25.0867 122.104 27.5479 112.99C27.63 112.582 26.4404 112.41 26.3173 112.818Z" fill="#161616"/>
<path d="M86.7406 96.6315C93.9601 97.3839 100.728 99.125 107.456 100.608C114.06 102.07 121.403 103.252 127.227 105.488C127.884 105.724 128.499 105.165 127.843 104.929C122.141 102.736 114.962 101.576 108.522 100.157C101.549 98.6306 94.5344 96.8035 87.0687 96.0081C86.2894 95.9221 85.9612 96.5455 86.7406 96.6315Z" fill="#161616"/>
<path d="M118.9 133.089C118.244 142.139 117.587 151.188 118.203 160.217C118.49 164.602 119.803 169.159 118.244 173.523C116.931 177.113 113.075 180.703 106.225 182.035C105.486 182.186 105.815 182.809 106.553 182.659C117.464 180.531 120.295 174.017 120.131 168.557C120.049 164.86 119.433 161.163 119.269 157.444C119.105 153.661 119.187 149.899 119.31 146.115C119.474 141.773 119.803 137.431 120.09 133.089C120.172 132.659 118.941 132.659 118.9 133.089Z" fill="#161616"/>
<path d="M35.7168 36.9983C36.0792 41.0008 36.7316 46.6117 38.1813 53.2326C39.1237 57.5344 39.7035 60.265 40.9358 63.669C42.7842 68.7936 46.2998 78.5941 55.4693 84.9905C57.6801 86.5616 61.3407 88.6564 66.4872 89.8908C67.3208 89.9656 68.1544 90.0778 68.988 90.1526C69.2779 91.7237 69.6404 94.0429 70.0028 96.8483C70.8726 104.068 70.4377 106.275 72.2499 108.22C74.4607 110.576 77.9763 110.352 78.7374 110.277C84.79 109.866 87.8344 103.656 87.9794 103.32C87.0008 101.487 86.0222 99.2423 85.2249 96.6239C83.4852 90.8259 83.449 85.6639 83.7389 82.1477C86.5296 77.9956 89.6103 74.816 92.7272 72.3472C93.9232 71.4121 94.938 70.1403 96.714 69.5044C99.251 68.6066 100.556 69.5044 102.44 68.9059C105.557 67.8959 106.898 63.7438 107.478 62.0231C109.689 55.2152 106.971 48.482 105.231 44.4796C103.673 40.8138 99.6134 31.724 89.719 24.6168C79.5347 17.2852 59.1661 9.13065 45.6836 19.7166C43.3641 21.5495 38.0726 26.4497 35.7168 36.9983Z" fill="white"/>
<path d="M37.239 52.4098C34.9194 51.9983 29.0481 50.5769 25.2426 45.3774C19.4437 37.4847 22.5606 26.4499 25.7862 20.6145C30.8602 11.45 40.1022 8.27042 51.7 4.26794C58.5862 1.91135 65.1461 -0.333021 74.0619 0.0410419C78.991 0.265479 95.699 1.0136 105.702 13.844C111.646 21.4374 112.298 29.592 113.603 45.6767C114.219 53.0457 113.748 57.0482 112.516 60.8636C111.61 63.6317 108.674 72.497 100.229 76.0506C95.8077 77.9209 91.7123 77.5468 89.4652 77.1728C91.4948 74.068 93.5244 71.0007 95.5903 67.896C96.7501 67.9708 100.882 68.0456 104.035 65.0905C108.348 61.0133 109.109 52.8961 105.956 50.7265C103.636 49.1181 99.0334 50.6891 95.0466 54.3923C94.6842 52.0357 94.1043 49.4547 93.1258 46.7989C88.5591 34.1181 78.6285 27.1606 73.772 24.2803C71.8511 26.8239 65.7623 34.2678 54.9618 37.2229C46.4085 39.5421 39.3048 37.8962 36.1517 36.9236C36.5141 42.0857 36.8766 47.2477 37.239 52.4098Z" fill="#E9D038"/>
<path d="M35.4276 37.9713C36.9135 49.5298 38.472 61.5372 43.9447 71.9362C48.4388 80.4648 55.6875 87.759 65.0019 90.1904C65.6906 90.3774 65.9805 89.2926 65.2919 89.1056C56.0861 86.6742 48.9825 79.3426 44.6333 70.8514C39.4505 60.7517 37.9646 49.1557 36.5148 37.9713C36.4061 37.2606 35.3188 37.2606 35.4276 37.9713Z" fill="#161616"/>
<path d="M65.0007 90.3396C71.5607 90.3396 78.4469 86.7112 83.5934 82.8209C88.7762 78.8933 93.0166 73.8434 96.0611 68.0081C96.3873 67.3722 95.4449 66.8111 95.1188 67.447C92.1831 73.1327 88.0876 78.0704 83.0498 81.8484C78.012 85.6638 71.3432 89.2174 65.0007 89.2174C64.2758 89.2174 64.2758 90.3396 65.0007 90.3396Z" fill="#161616"/>
<path d="M83.5574 81.9231C82.8326 89.4792 84.2461 97.0353 87.5804 103.806C87.9066 104.442 88.8489 103.881 88.5228 103.245C85.2609 96.6238 83.9561 89.2922 84.6447 81.9231C84.7172 81.2124 83.6299 81.2124 83.5574 81.9231Z" fill="#161616"/>
<path d="M67.7924 90.1524C68.9884 94.4167 69.967 98.7559 70.6918 103.132C71.163 106.05 71.3442 109.342 74.4974 110.427C79.209 112.073 86.1676 109.155 87.9798 104.329C88.2335 103.656 87.1825 103.357 86.9288 104.03C85.9139 106.761 83.3769 108.257 80.7674 109.043C78.5928 109.679 75.2947 110.352 73.4463 108.519C72.359 107.434 72.2141 105.713 71.9966 104.255C71.7429 102.721 71.4892 101.187 71.1992 99.6536C70.5469 96.3619 69.7858 93.0701 68.8797 89.8532C68.6622 89.1798 67.6112 89.4791 67.7924 90.1524Z" fill="#161616"/>
<path d="M69.3504 94.7909C75.8017 93.9306 80.0422 88.8433 83.1591 83.382C83.5215 82.7461 82.5792 82.185 82.2167 82.8209C79.3535 87.9082 75.3668 92.8832 69.3504 93.6687C68.6618 93.781 68.6618 94.9031 69.3504 94.7909Z" fill="#161616"/>
<path d="M69.0967 90.9756C74.1345 90.3771 78.665 87.9458 82.0356 84.0181C82.5067 83.4944 81.7456 82.6715 81.2745 83.2326C78.1213 86.9358 73.8446 89.2924 69.0967 89.8535C68.4443 89.9283 68.4081 91.0505 69.0967 90.9756Z" fill="#161616"/>
<path d="M69.2784 90.1529C73.3376 89.5544 76.9982 87.8337 80.1151 85.1031C80.6587 84.6168 79.8614 83.8312 79.354 84.3175C76.3821 86.936 72.8665 88.5444 68.9885 89.1055C68.2999 89.1804 68.5898 90.2652 69.2784 90.1529Z" fill="#161616"/>
<path d="M69.0606 91.0879C69.2418 91.9856 69.2055 93.7811 70.2928 94.0804C71.3439 94.3796 72.9386 93.1078 73.7721 92.5841C76.6353 90.7886 79.0274 88.3572 80.912 85.5143C81.3107 84.9158 80.3684 84.3547 79.9697 84.9532C78.6287 87.0106 76.9978 88.8435 75.0769 90.3397C74.1708 91.0505 73.2285 91.649 72.25 92.2101C71.8513 92.4345 70.9452 93.0704 70.5465 92.8085C70.2928 92.6589 70.1841 91.0504 70.1478 90.7886C69.9666 90.0779 68.9156 90.3771 69.0606 91.0879Z" fill="#161616"/>
<path d="M69.5678 92.1351C72.6848 90.8258 75.6205 89.18 78.3749 87.1974C78.9548 86.7859 78.4112 85.8134 77.8313 86.2248C75.1493 88.17 72.3223 89.7785 69.2779 91.0503C68.6255 91.3121 68.9155 92.3969 69.5678 92.1351Z" fill="#161616"/>
<path d="M70.1118 93.2576C73.5911 91.9858 76.6355 90.0033 79.1725 87.2352C79.6437 86.7115 78.8826 85.926 78.4114 86.4497C75.9831 89.0307 73.1199 90.9758 69.8218 92.1728C69.1695 92.4347 69.4594 93.5194 70.1118 93.2576Z" fill="#161616"/>
<path d="M70.6917 92.659C73.2649 91.4994 75.6207 89.9284 77.6503 87.9085C78.1577 87.4222 77.3966 86.6366 76.8892 87.1229C74.8958 89.068 72.6488 90.5643 70.148 91.6865C69.4956 91.9857 70.0393 92.9583 70.6917 92.659Z" fill="#161616"/>
<path d="M41.0811 66.3999C35.1734 64.2303 33.2163 56.2628 33.7962 50.5022C34.4123 44.1806 39.9213 37.2978 46.6625 40.2529C49.8881 41.6744 51.0842 45.3402 51.954 48.5945C52.8601 52.0359 53.2587 55.8513 52.3889 59.3675C51.6278 62.4722 49.7794 65.4273 46.88 66.7739C43.9805 68.1206 40.5374 67.3724 38.5803 64.7914C38.1453 64.2303 37.3843 65.0159 37.8192 65.577C41.1173 69.9535 47.3149 69.0931 50.6492 65.2403C54.8897 60.3401 54.4548 52.8962 52.6426 47.0234C51.809 44.2928 50.7217 41.4499 48.2934 39.8789C46.1913 38.4948 43.5093 38.1582 41.1535 38.7941C35.6446 40.3277 32.7814 46.3501 32.6726 51.8489C32.5639 57.8713 34.8472 65.3151 40.8636 67.4847C41.4435 67.7091 41.7334 66.6243 41.0811 66.3999Z" fill="#161616"/>
<path d="M53.6206 55.2153C57.1724 53.0084 61.4853 52.784 65.1821 54.6916C65.7982 55.0283 66.3419 54.0557 65.7257 53.7191C61.6665 51.6244 56.9549 51.8114 53.0407 54.2428C52.497 54.6168 53.0407 55.5894 53.6206 55.2153Z" fill="#161616"/>
<path d="M70.9453 63.1831C66.8498 59.1058 65.1464 52.7841 66.7411 47.0984C68.4083 41.1882 74.1347 36.101 80.296 38.1957C87.1097 40.5149 87.4721 50.5772 85.6962 56.4874C84.6452 59.9661 82.5431 63.4449 79.0637 64.7167C75.5844 65.9885 72.5762 64.0808 69.7855 62.0609C69.2056 61.6494 68.662 62.622 69.2418 63.0334C71.5252 64.7167 73.9897 66.4 76.8892 66.2878C79.6436 66.1756 82.1444 64.6045 83.8478 62.4723C87.6896 57.6844 88.4507 50.3901 86.856 44.5548C85.4063 39.2431 81.1296 35.8017 75.6569 36.7369C70.4379 37.5972 66.5961 42.46 65.4363 47.5473C64.0953 53.42 65.9075 59.7791 70.1117 63.9686C70.6916 64.4923 71.4527 63.6693 70.9453 63.1831Z" fill="#161616"/>
<path d="M44.379 50.8763C44.0166 53.2329 44.4153 55.5147 45.6475 57.5347C45.9012 57.9461 46.4811 57.8713 46.626 57.385C47.4959 54.804 46.2636 52.2604 45.0314 50.0534C44.7777 49.5671 44.0166 49.7916 44.0166 50.3527C44.0528 52.3352 44.4515 54.2803 45.1764 56.1132C45.43 56.7865 46.4811 56.4873 46.2274 55.814C45.5388 54.0559 45.1401 52.2604 45.1039 50.3527C44.7777 50.4649 44.4153 50.5397 44.0891 50.6519C45.2126 52.6344 46.3723 54.804 45.575 57.1232C45.9012 57.0858 46.2274 57.0484 46.5536 56.9736C45.4663 55.2155 45.0676 53.2329 45.3938 51.1756C45.5388 50.4649 44.4877 50.1656 44.379 50.8763Z" fill="#161616"/>
<path d="M76.454 49.8287C76.454 49.3424 76.4177 49.2302 76.2003 48.8187C75.9466 48.3325 75.1855 48.5569 75.1855 49.118C75.2217 51.4372 75.4029 53.9434 77.1426 55.5893C77.505 55.926 78.0124 55.6641 78.0849 55.1778C78.3748 52.4098 77.5775 49.8287 75.9103 47.6591C75.5479 47.2103 74.8955 47.6965 75.0043 48.2202C75.4392 50.0531 75.9828 51.8487 76.6352 53.5694C76.8889 54.2427 77.9399 53.9434 77.6862 53.2701C76.9976 51.512 76.454 49.7539 76.0553 47.921C75.7654 48.108 75.4392 48.295 75.1492 48.4821C76.6352 50.4272 77.2513 52.7464 76.9976 55.2152C77.3238 55.0656 77.6137 54.9534 77.9399 54.8038C76.3815 53.3449 76.309 51.1379 76.2728 49.118C75.9466 49.2302 75.5841 49.305 75.258 49.4172C75.2942 49.5669 75.3304 49.7165 75.3667 49.8661C75.3667 50.5394 76.454 50.5394 76.454 49.8287Z" fill="#161616"/>
<path d="M57.2455 57.198C56.5206 59.4423 55.9045 61.7241 55.5058 64.0433C55.2884 65.2777 54.5273 67.5969 55.0709 68.8313C56.1582 71.3375 60.9785 69.8039 62.6457 68.9809C63.2618 68.6817 62.7182 67.7091 62.1021 68.0084C60.7611 68.6817 59.3113 69.0183 57.8254 68.9061C56.9555 68.8313 56.2669 68.6817 56.0857 67.6717C55.977 67.1106 56.3394 65.6518 56.4482 65.0159C56.8831 62.4348 57.5354 59.9286 58.3328 57.4598C58.514 56.8239 57.463 56.5246 57.2455 57.198Z" fill="#161616"/>
<path d="M62.7183 78.7811C65.4366 78.4071 67.7924 76.6116 68.9884 74.0305C69.2783 73.3946 68.336 72.7961 68.0461 73.4694C66.9588 75.826 64.9292 77.3597 62.4284 77.6963C61.7398 77.8086 62.066 78.8933 62.7183 78.7811Z" fill="#161616"/>
<path d="M42.0949 47.659C42.7836 46.7986 44.0521 46.649 44.9219 47.3971C45.4656 47.8834 46.2267 47.0605 45.683 46.6116C44.4145 45.4894 42.4574 45.5642 41.3338 46.8734C40.8626 47.3971 41.6238 48.1827 42.0949 47.659Z" fill="#161616"/>
<path d="M73.1923 45.5647C74.3158 44.5547 76.0192 44.5547 77.1427 45.5273C77.6864 45.9761 78.4474 45.1906 77.9038 44.7417C76.3091 43.3203 73.9896 43.3577 72.3949 44.7791C71.8875 45.2654 72.6849 46.051 73.1923 45.5647Z" fill="#161616"/>
<path d="M87.4718 50.7265C91.3861 49.3051 95.4091 48.4447 99.5771 48.2203C100.266 48.1829 100.266 47.0607 99.5771 47.0981C95.3366 47.3225 91.2048 48.1829 87.1818 49.6417C86.5294 49.9036 86.7831 50.9883 87.4718 50.7265Z" fill="#161616"/>
<path opacity="0.4" d="M92.8725 4.11823C95.0471 6.99851 103.419 18.8189 101.861 35.0532C100.991 44.1055 97.3666 50.7638 95.0833 54.28C96.3881 53.2326 97.5116 52.5219 98.3452 52.0356C100.556 50.7638 101.969 49.9783 103.782 50.0905C104.325 50.1279 105.63 50.2401 106.572 51.0257C109.327 53.4197 108.384 61.9109 103.492 65.8759C100.81 68.0455 97.6566 68.2699 96.0619 68.2325C93.996 71.2624 91.894 74.2923 89.8281 77.3597C91.2054 77.5841 93.3074 77.7711 95.7357 77.397C96.7868 77.2474 100.991 76.4619 104.978 73.1702C108.892 69.9158 110.487 65.9507 111.538 63.2575C114.437 55.7762 113.857 49.1928 112.842 37.335C112.407 32.0607 112.154 29.3674 111.139 25.8138C110.052 21.961 108.348 16.2753 103.492 11.188C100.012 7.44738 96.0981 5.35263 92.8725 4.11823Z" fill="#3D3D3D"/>
<path opacity="0.48" d="M57.8613 36.1008C61.4856 32.7716 65.5449 28.5073 69.4591 23.1956C71.8874 19.9038 73.917 16.7243 75.5842 13.7692C74.9681 17.1358 74.3519 20.5024 73.7721 23.8689C72.3586 25.9637 70.0028 28.9562 66.3422 31.6868C63.1166 34.0434 60.0722 35.3526 57.8613 36.1008Z" fill="#3D3D3D"/>
<path opacity="0.27" d="M83.6298 31.8362C86.3843 41.3 86.6018 49.2302 86.3481 54.467C86.1668 58.3573 85.152 78.7437 74.7503 85.7761C73.7354 86.4494 71.1622 88.0205 71.2709 88.2449C71.4159 88.5067 76.2362 86.2998 78.882 84.8035C83.0499 82.4843 89.465 77.8085 95.4088 67.9333C96.3874 68.0455 101.171 68.3822 104.615 64.9782C108.783 60.9009 109.507 52.896 106.209 50.5394C103.853 48.8561 99.3594 50.2775 95.4088 53.6441C95.0102 51.9234 94.5028 50.1279 93.8142 48.2202C91.0959 40.8137 87.0004 35.4272 83.6298 31.8362Z" fill="#3D3D3D"/>
<path opacity="0.36" d="M74.8955 87.9457C75.8378 90.9382 76.7801 93.9307 77.7225 96.9606C79.0272 101.075 80.2957 105.227 81.5642 109.342C82.2891 109.192 84.065 108.669 85.6234 107.023C87.1819 105.377 87.6893 103.582 87.8705 102.833C86.457 99.9531 84.7899 95.5766 84.21 90.0405C83.92 87.1602 83.9925 84.6166 84.21 82.4844C81.1293 84.3173 78.0124 86.1502 74.8955 87.9457Z" fill="#3D3D3D"/>
<path opacity="0.43" d="M56.8105 58.507C54.9983 62.5095 53.1862 66.4745 51.374 70.477C54.3459 70.4022 57.2816 70.3648 60.2535 70.29C58.5139 69.7289 56.738 69.1678 54.9983 68.6067C55.5782 65.2401 56.1943 61.8736 56.8105 58.507Z" fill="#3D3D3D"/>
</svg>
