<svg width="352" height="206" viewBox="0 0 352 206" fill="none" xmlns="http://www.w3.org/2000/svg">
<path d="M97.5 0H310.999C316.522 0 320.999 4.47715 320.999 10V190C320.999 195.523 316.522 200 310.999 200H11.1472C5.19617 200 0.971776 194.882 3.33738 189.422C12.3703 168.57 45.351 119.952 164 71.3333C320.999 7 214.391 9.72288 97.5 0Z" fill="#EFE49E"/>
<path d="M239.46 117.802C237.984 122.853 211.308 164.029 209.914 169.145C204.499 188.986 225.062 172.402 221.124 191.576C221.206 192.221 221.534 193.253 222.765 194.284C223.996 195.338 225.636 195.875 226.416 196.155C233.881 198.949 237.614 200.368 241.388 201.314C259.478 205.892 279.496 205.355 279.496 205.355C283.721 205.247 292.13 204.968 301.155 203.076C301.647 202.969 305.092 202.13 311.984 200.432C318.219 198.906 319.326 198.605 320.844 197.874C324.454 196.133 325.849 193.983 326.792 192.457C328.802 189.211 335.447 186.46 335.365 185.794C335.365 185.794 352.283 200.401 351.995 169.145C351.954 162.783 328.966 133.472 335.365 121.929C328.72 120.231 322.485 118.661 314.978 116.77C309.81 115.459 305.01 114.255 298.119 113.825C296.15 113.696 294.386 113.653 291.761 113.674C281.096 113.717 272.317 114.577 268.543 114.921C261.201 115.545 251.274 116.49 239.46 117.802Z" fill="#4F827B"/>
<path d="M239.132 118.554C251.849 117.135 264.688 115.996 277.568 115.158C278.143 115.115 278.471 114.728 277.896 114.556C277.732 114.513 277.568 114.448 277.363 114.405C276.666 114.19 276.05 114.749 276.748 114.964C276.912 115.007 277.076 115.072 277.281 115.115C277.404 114.921 277.486 114.706 277.609 114.513C264.606 115.351 251.643 116.49 238.845 117.931C238.025 118.017 238.353 118.64 239.132 118.554Z" fill="#161616"/>
<path d="M235.317 129.818C230.805 146.671 226.703 163.545 223.011 180.463C222.56 182.591 222.109 184.697 221.658 186.825C221.288 188.674 220.263 190.759 220.714 192.608C221.124 194.242 223.586 195.273 225.842 196.262C228.303 197.337 230.887 198.347 233.594 199.272C244.711 203.033 257.714 205.29 270.923 205.699C286.633 206.172 302.426 204.065 315.84 199.766C316.496 199.551 315.881 198.992 315.224 199.207C291.761 206.709 261.898 207.01 237.984 199.895C235.235 199.078 232.569 198.175 230.026 197.186C227.442 196.176 223.257 194.8 222.191 193.145C221.699 192.35 221.945 191.469 222.109 190.63C222.314 189.577 222.56 188.502 222.765 187.449C223.175 185.471 223.586 183.494 224.037 181.516C225.801 173.455 227.606 165.415 229.575 157.376C231.79 148.24 234.087 139.104 236.548 129.99C236.63 129.582 235.44 129.41 235.317 129.818Z" fill="#161616"/>
<path d="M295.741 113.631C302.96 114.384 309.728 116.125 316.456 117.608C323.06 119.07 330.403 120.252 336.227 122.488C336.884 122.724 337.499 122.165 336.843 121.929C331.141 119.736 323.962 118.576 317.522 117.157C310.549 115.631 303.534 113.803 296.069 113.008C295.289 112.922 294.961 113.546 295.741 113.631Z" fill="#161616"/>
<path d="M327.9 150.089C327.244 159.139 326.587 168.188 327.203 177.217C327.49 181.602 328.803 186.159 327.244 190.523C325.931 194.113 322.075 197.703 315.225 199.035C314.486 199.186 314.815 199.809 315.553 199.659C326.464 197.531 329.295 191.017 329.131 185.557C329.049 181.86 328.433 178.163 328.269 174.444C328.105 170.661 328.187 166.899 328.31 163.115C328.474 158.773 328.803 154.431 329.09 150.089C329.172 149.659 327.941 149.659 327.9 150.089Z" fill="#161616"/>
<path d="M244.717 53.9983C245.079 58.0008 245.732 63.6117 247.181 70.2326C248.124 74.5344 248.704 77.265 249.936 80.669C251.784 85.7936 255.3 95.5941 264.469 101.991C266.68 103.562 270.341 105.656 275.487 106.891C276.321 106.966 277.154 107.078 277.988 107.153C278.278 108.724 278.64 111.043 279.003 113.848C279.873 121.068 279.438 123.275 281.25 125.22C283.461 127.576 286.976 127.352 287.737 127.277C293.79 126.866 296.834 120.656 296.979 120.32C296.001 118.487 295.022 116.242 294.225 113.624C292.485 107.826 292.449 102.664 292.739 99.1477C295.53 94.9956 298.61 91.816 301.727 89.3472C302.923 88.4121 303.938 87.1403 305.714 86.5044C308.251 85.6066 309.556 86.5044 311.44 85.9059C314.557 84.8959 315.898 80.7438 316.478 79.0231C318.689 72.2152 315.971 65.482 314.231 61.4796C312.673 57.8138 308.613 48.724 298.719 41.6168C288.535 34.2852 268.166 26.1307 254.684 36.7166C252.364 38.5495 247.073 43.4497 244.717 53.9983Z" fill="white"/>
<path d="M246.239 69.4098C243.919 68.9983 238.048 67.5769 234.243 62.3774C228.444 54.4847 231.561 43.4499 234.786 37.6145C239.86 28.45 249.102 25.2704 260.7 21.2679C267.586 18.9114 274.146 16.667 283.062 17.041C287.991 17.2655 304.699 18.0136 314.702 30.844C320.646 38.4374 321.298 46.592 322.603 62.6767C323.219 70.0457 322.748 74.0482 321.516 77.8636C320.61 80.6317 317.674 89.497 309.229 93.0506C304.808 94.9209 300.712 94.5468 298.465 94.1728C300.495 91.068 302.524 88.0007 304.59 84.896C305.75 84.9708 309.882 85.0456 313.035 82.0905C317.348 78.0133 318.109 69.8961 314.956 67.7265C312.636 66.1181 308.033 67.6891 304.047 71.3923C303.684 69.0357 303.104 66.4547 302.126 63.7989C297.559 51.1181 287.629 44.1606 282.772 41.2803C280.851 43.8239 274.762 51.2678 263.962 54.2229C255.408 56.5421 248.305 54.8962 245.152 53.9236C245.514 59.0857 245.877 64.2477 246.239 69.4098Z" fill="#E9D038"/>
<path d="M244.428 54.9713C245.914 66.5298 247.472 78.5372 252.945 88.9362C257.439 97.4648 264.687 104.759 274.002 107.19C274.691 107.377 274.981 106.293 274.292 106.106C265.086 103.674 257.982 96.3426 253.633 87.8514C248.451 77.7517 246.965 66.1557 245.515 54.9713C245.406 54.2606 244.319 54.2606 244.428 54.9713Z" fill="#161616"/>
<path d="M274.001 107.34C280.561 107.34 287.447 103.711 292.593 99.8209C297.776 95.8933 302.017 90.8434 305.061 85.0081C305.387 84.3722 304.445 83.8111 304.119 84.447C301.183 90.1327 297.088 95.0704 292.05 98.8484C287.012 102.664 280.343 106.217 274.001 106.217C273.276 106.217 273.276 107.34 274.001 107.34Z" fill="#161616"/>
<path d="M292.557 98.9231C291.833 106.479 293.246 114.035 296.58 120.806C296.907 121.442 297.849 120.881 297.523 120.245C294.261 113.624 292.956 106.292 293.645 98.9231C293.717 98.2124 292.63 98.2124 292.557 98.9231Z" fill="#161616"/>
<path d="M276.792 107.152C277.988 111.417 278.967 115.756 279.692 120.132C280.163 123.05 280.344 126.342 283.497 127.427C288.209 129.073 295.168 126.155 296.98 121.329C297.233 120.656 296.182 120.357 295.929 121.03C294.914 123.761 292.377 125.257 289.767 126.043C287.593 126.679 284.295 127.352 282.446 125.519C281.359 124.434 281.214 122.713 280.997 121.255C280.743 119.721 280.489 118.187 280.199 116.654C279.547 113.362 278.786 110.07 277.88 106.853C277.662 106.18 276.611 106.479 276.792 107.152Z" fill="#161616"/>
<path d="M278.35 111.791C284.802 110.931 289.042 105.843 292.159 100.382C292.521 99.7461 291.579 99.185 291.217 99.8209C288.354 104.908 284.367 109.883 278.35 110.669C277.662 110.781 277.662 111.903 278.35 111.791Z" fill="#161616"/>
<path d="M278.097 107.976C283.135 107.377 287.665 104.946 291.036 101.018C291.507 100.494 290.746 99.6715 290.274 100.233C287.121 103.936 282.845 106.292 278.097 106.853C277.444 106.928 277.408 108.05 278.097 107.976Z" fill="#161616"/>
<path d="M278.278 107.153C282.338 106.554 285.998 104.834 289.115 102.103C289.659 101.617 288.861 100.831 288.354 101.318C285.382 103.936 281.866 105.544 277.988 106.106C277.3 106.18 277.59 107.265 278.278 107.153Z" fill="#161616"/>
<path d="M278.061 108.088C278.242 108.986 278.206 110.781 279.293 111.08C280.344 111.38 281.939 110.108 282.772 109.584C285.635 107.789 288.027 105.357 289.912 102.514C290.311 101.916 289.368 101.355 288.97 101.953C287.629 104.011 285.998 105.843 284.077 107.34C283.171 108.05 282.229 108.649 281.25 109.21C280.851 109.434 279.945 110.07 279.547 109.809C279.293 109.659 279.184 108.05 279.148 107.789C278.967 107.078 277.916 107.377 278.061 108.088Z" fill="#161616"/>
<path d="M278.568 109.135C281.685 107.826 284.62 106.18 287.375 104.197C287.955 103.786 287.411 102.813 286.831 103.225C284.149 105.17 281.322 106.778 278.278 108.05C277.626 108.312 277.915 109.397 278.568 109.135Z" fill="#161616"/>
<path d="M279.112 110.258C282.591 108.986 285.636 107.003 288.173 104.235C288.644 103.712 287.883 102.926 287.411 103.45C284.983 106.031 282.12 107.976 278.822 109.173C278.169 109.435 278.459 110.519 279.112 110.258Z" fill="#161616"/>
<path d="M279.692 109.659C282.265 108.499 284.621 106.928 286.65 104.908C287.158 104.422 286.397 103.637 285.889 104.123C283.896 106.068 281.649 107.564 279.148 108.686C278.496 108.986 279.039 109.958 279.692 109.659Z" fill="#161616"/>
<path d="M250.081 83.3999C244.173 81.2303 242.216 73.2628 242.796 67.5022C243.412 61.1806 248.921 54.2978 255.662 57.2529C258.888 58.6744 260.084 62.3402 260.954 65.5945C261.86 69.0359 262.259 72.8513 261.389 76.3675C260.628 79.4722 258.779 82.4273 255.88 83.7739C252.981 85.1206 249.537 84.3724 247.58 81.7914C247.145 81.2303 246.384 82.0159 246.819 82.5769C250.117 86.9535 256.315 86.0931 259.649 82.2403C263.89 77.3401 263.455 69.8962 261.643 64.0234C260.809 61.2928 259.722 58.4499 257.293 56.8789C255.191 55.4948 252.509 55.1582 250.154 55.7941C244.645 57.3277 241.781 63.3501 241.673 68.8489C241.564 74.8713 243.847 82.3151 249.864 84.4847C250.443 84.7091 250.733 83.6243 250.081 83.3999Z" fill="#161616"/>
<path d="M262.621 72.2153C266.172 70.0084 270.485 69.784 274.182 71.6916C274.798 72.0283 275.342 71.0557 274.726 70.7191C270.667 68.6244 265.955 68.8114 262.041 71.2428C261.497 71.6168 262.041 72.5894 262.621 72.2153Z" fill="#161616"/>
<path d="M279.945 80.1831C275.85 76.1058 274.146 69.7841 275.741 64.0984C277.408 58.1882 283.135 53.101 289.296 55.1957C296.11 57.5149 296.472 67.5772 294.696 73.4874C293.645 76.9661 291.543 80.4449 288.064 81.7167C284.584 82.9885 281.576 81.0808 278.785 79.0609C278.206 78.6494 277.662 79.622 278.242 80.0334C280.525 81.7167 282.99 83.4 285.889 83.2878C288.644 83.1756 291.144 81.6045 292.848 79.4723C296.69 74.6844 297.451 67.3901 295.856 61.5548C294.406 56.2431 290.13 52.8017 284.657 53.7369C279.438 54.5972 275.596 59.46 274.436 64.5473C273.095 70.42 274.907 76.7791 279.112 80.9686C279.692 81.4923 280.453 80.6693 279.945 80.1831Z" fill="#161616"/>
<path d="M253.379 67.8763C253.017 70.2329 253.415 72.5147 254.647 74.5347C254.901 74.9461 255.481 74.8713 255.626 74.385C256.496 71.804 255.264 69.2604 254.031 67.0534C253.778 66.5671 253.017 66.7916 253.017 67.3527C253.053 69.3352 253.452 71.2803 254.176 73.1132C254.43 73.7865 255.481 73.4873 255.227 72.814C254.539 71.0559 254.14 69.2604 254.104 67.3527C253.778 67.4649 253.415 67.5397 253.089 67.6519C254.213 69.6344 255.372 71.804 254.575 74.1232C254.901 74.0858 255.227 74.0484 255.554 73.9736C254.466 72.2155 254.068 70.2329 254.394 68.1756C254.539 67.4649 253.488 67.1656 253.379 67.8763Z" fill="#161616"/>
<path d="M285.454 66.8287C285.454 66.3424 285.418 66.2302 285.2 65.8187C284.947 65.3325 284.185 65.5569 284.185 66.118C284.222 68.4372 284.403 70.9434 286.143 72.5893C286.505 72.926 287.012 72.6641 287.085 72.1778C287.375 69.4098 286.577 66.8287 284.91 64.6591C284.548 64.2103 283.896 64.6965 284.004 65.2202C284.439 67.0531 284.983 68.8487 285.635 70.5694C285.889 71.2427 286.94 70.9434 286.686 70.2701C285.998 68.512 285.454 66.7539 285.055 64.921C284.765 65.108 284.439 65.295 284.149 65.4821C285.635 67.4272 286.251 69.7464 285.998 72.2152C286.324 72.0656 286.614 71.9534 286.94 71.8038C285.381 70.3449 285.309 68.1379 285.273 66.118C284.947 66.2302 284.584 66.305 284.258 66.4172C284.294 66.5669 284.33 66.7165 284.367 66.8661C284.367 67.5394 285.454 67.5394 285.454 66.8287Z" fill="#161616"/>
<path d="M266.246 74.198C265.521 76.4423 264.905 78.7241 264.506 81.0433C264.288 82.2777 263.527 84.5969 264.071 85.8313C265.158 88.3375 269.979 86.8039 271.646 85.9809C272.262 85.6817 271.718 84.7091 271.102 85.0084C269.761 85.6817 268.311 86.0183 266.825 85.9061C265.956 85.8313 265.267 85.6817 265.086 84.6717C264.977 84.1106 265.339 82.6518 265.448 82.0159C265.883 79.4348 266.535 76.9286 267.333 74.4598C267.514 73.8239 266.463 73.5246 266.246 74.198Z" fill="#161616"/>
<path d="M271.718 95.7811C274.437 95.4071 276.792 93.6116 277.988 91.0305C278.278 90.3946 277.336 89.7961 277.046 90.4694C275.959 92.826 273.929 94.3597 271.428 94.6963C270.74 94.8086 271.066 95.8933 271.718 95.7811Z" fill="#161616"/>
<path d="M251.095 64.659C251.784 63.7986 253.052 63.649 253.922 64.3971C254.466 64.8834 255.227 64.0605 254.683 63.6116C253.415 62.4894 251.457 62.5642 250.334 63.8734C249.863 64.3971 250.624 65.1827 251.095 64.659Z" fill="#161616"/>
<path d="M282.192 62.5647C283.316 61.5547 285.019 61.5547 286.143 62.5273C286.686 62.9761 287.447 62.1906 286.904 61.7417C285.309 60.3203 282.99 60.3577 281.395 61.7791C280.888 62.2654 281.685 63.051 282.192 62.5647Z" fill="#161616"/>
<path d="M296.472 67.7265C300.386 66.3051 304.409 65.4447 308.577 65.2203C309.266 65.1829 309.266 64.0607 308.577 64.0981C304.337 64.3225 300.205 65.1829 296.182 66.6417C295.529 66.9036 295.783 67.9883 296.472 67.7265Z" fill="#161616"/>
<path opacity="0.4" d="M301.873 21.1182C304.047 23.9985 312.419 35.8189 310.861 52.0532C309.991 61.1055 306.367 67.7638 304.083 71.28C305.388 70.2326 306.512 69.5219 307.345 69.0356C309.556 67.7638 310.969 66.9783 312.782 67.0905C313.325 67.1279 314.63 67.2401 315.572 68.0257C318.327 70.4196 317.384 78.9109 312.492 82.8759C309.81 85.0455 306.657 85.2699 305.062 85.2325C302.996 88.2624 300.894 91.2923 298.828 94.3597C300.205 94.5841 302.307 94.7711 304.736 94.3971C305.787 94.2474 309.991 93.4619 313.978 90.1701C317.892 86.9158 319.487 82.9507 320.538 80.2575C323.437 72.7762 322.857 66.1928 321.842 54.335C321.407 49.0607 321.154 46.3674 320.139 42.8138C319.052 38.961 317.348 33.2753 312.492 28.188C309.012 24.4474 305.098 22.3526 301.873 21.1182Z" fill="#3D3D3D"/>
<path opacity="0.48" d="M266.861 53.1008C270.486 49.7716 274.545 45.5073 278.459 40.1956C280.887 36.9038 282.917 33.7243 284.584 30.7692C283.968 34.1358 283.352 37.5024 282.772 40.8689C281.359 42.9637 279.003 45.9562 275.342 48.6868C272.117 51.0434 269.072 52.3526 266.861 53.1008Z" fill="#3D3D3D"/>
<path opacity="0.27" d="M292.63 48.8362C295.384 58.3 295.602 66.2302 295.348 71.467C295.167 75.3573 294.152 95.7437 283.75 102.776C282.735 103.449 280.162 105.02 280.271 105.245C280.416 105.507 285.236 103.3 287.882 101.804C292.05 99.4843 298.465 94.8085 304.409 84.9333C305.387 85.0455 310.171 85.3822 313.615 81.9782C317.783 77.9009 318.507 69.896 315.209 67.5394C312.853 65.8561 308.359 67.2775 304.409 70.6441C304.01 68.9234 303.503 67.1279 302.814 65.2202C300.096 57.8137 296 52.4272 292.63 48.8362Z" fill="#3D3D3D"/>
<path opacity="0.36" d="M283.896 104.946C284.838 107.938 285.78 110.931 286.722 113.961C288.027 118.075 289.296 122.227 290.564 126.342C291.289 126.192 293.065 125.669 294.623 124.023C296.182 122.377 296.689 120.582 296.871 119.833C295.457 116.953 293.79 112.577 293.21 107.04C292.92 104.16 292.993 101.617 293.21 99.4844C290.129 101.317 287.012 103.15 283.896 104.946Z" fill="#3D3D3D"/>
<path opacity="0.43" d="M265.81 75.507C263.998 79.5095 262.186 83.4745 260.374 87.477C263.346 87.4022 266.282 87.3648 269.254 87.29C267.514 86.7289 265.738 86.1678 263.998 85.6067C264.578 82.2401 265.194 78.8736 265.81 75.507Z" fill="#3D3D3D"/>
</svg>
