<svg width="20" height="25" viewBox="0 0 20 25" fill="none" xmlns="http://www.w3.org/2000/svg">
<path d="M17 8.33329H15.8333V5.99996C15.8333 2.77996 13.22 0.166626 9.99999 0.166626C6.77999 0.166626 4.16666 2.77996 4.16666 5.99996V8.33329H2.99999C1.71666 8.33329 0.666656 9.38329 0.666656 10.6666V22.3333C0.666656 23.6166 1.71666 24.6666 2.99999 24.6666H17C18.2833 24.6666 19.3333 23.6166 19.3333 22.3333V10.6666C19.3333 9.38329 18.2833 8.33329 17 8.33329ZM9.99999 18.8333C8.71666 18.8333 7.66666 17.7833 7.66666 16.5C7.66666 15.2166 8.71666 14.1666 9.99999 14.1666C11.2833 14.1666 12.3333 15.2166 12.3333 16.5C12.3333 17.7833 11.2833 18.8333 9.99999 18.8333ZM13.6167 8.33329H6.38332V5.99996C6.38332 4.00496 8.00499 2.38329 9.99999 2.38329C11.995 2.38329 13.6167 4.00496 13.6167 5.99996V8.33329Z" fill="#C4C4C4"/>
</svg>
