<svg width="32" height="32" viewBox="0 0 32 32" fill="none" xmlns="http://www.w3.org/2000/svg">
<g clip-path="url(#clip0)">
<path d="M19.9998 17.3335C19.2625 17.3335 18.6666 17.9309 18.6666 18.6667V24.0001C18.6666 24.7347 18.0691 25.3334 17.3331 25.3334H13.3331V5.33357C13.3331 4.19491 12.6078 3.17758 11.5172 2.79892L11.1224 2.66684H17.3331C18.0691 2.66684 18.6666 3.26547 18.6666 4.00033V8.00029C18.6666 8.73612 19.2625 9.33353 19.9998 9.33353C20.7371 9.33353 21.333 8.73612 21.333 8.00029V4.00033C21.333 1.79503 19.5384 0.000366211 17.3331 0.000366211H2.99997C2.94919 0.000366211 2.90671 0.0230711 2.85739 0.0296628C2.79318 0.0242918 2.7319 0.000366211 2.66672 0.000366211C1.19603 0.000366211 0 1.19616 0 2.66684V26.6666C0 27.8053 0.725334 28.8226 1.8159 29.2013L9.83998 31.876C10.112 31.96 10.3825 32.0001 10.6666 32.0001C12.1373 32.0001 13.3331 30.804 13.3331 29.3333V28.0001H17.3331C19.5384 28.0001 21.333 26.2054 21.333 24.0001V18.6667C21.333 17.9309 20.7371 17.3335 19.9998 17.3335Z" fill="black"/>
<path d="M31.609 12.3908L26.2755 7.05765C25.8944 6.67631 25.321 6.56156 24.8224 6.7681C24.3251 6.97489 23.9997 7.46146 23.9997 8.00027V12.0002H18.6665C17.9304 12.0002 17.333 12.5974 17.333 13.3335C17.333 14.0695 17.9304 14.6667 18.6665 14.6667H23.9997V18.6667C23.9997 19.2055 24.3251 19.692 24.8224 19.8988C25.321 20.1054 25.8944 19.9906 26.2755 19.6095L31.609 14.2761C32.1302 13.7548 32.1302 12.9121 31.609 12.3908Z" fill="black"/>
</g>
<defs>
<clipPath id="clip0">
<rect width="32" height="32" fill="white"/>
</clipPath>
</defs>
</svg>
