<svg width="28" height="29" viewBox="0 0 28 29" fill="none" xmlns="http://www.w3.org/2000/svg">
<path d="M24.7097 15.804C24.7637 15.354 24.7997 14.886 24.7997 14.4C24.7997 13.914 24.7637 13.446 24.6917 12.996L27.7337 10.62C28.0037 10.404 28.0757 10.008 27.9137 9.702L25.0337 4.716C24.8537 4.392 24.4757 4.284 24.1517 4.392L20.5697 5.832C19.8137 5.256 19.0217 4.788 18.1397 4.428L17.5997 0.612C17.5457 0.252 17.2397 0 16.8797 0H11.1197C10.7597 0 10.4717 0.252 10.4177 0.612L9.87767 4.428C8.99567 4.788 8.18567 5.274 7.44767 5.832L3.86567 4.392C3.54167 4.266 3.16367 4.392 2.98367 4.716L0.103672 9.702C-0.0763284 10.026 -0.00432812 10.404 0.283672 10.62L3.32567 12.996C3.25367 13.446 3.19967 13.932 3.19967 14.4C3.19967 14.868 3.23567 15.354 3.30767 15.804L0.265671 18.18C-0.00432855 18.396 -0.0763284 18.792 0.0856716 19.098L2.96567 24.084C3.14567 24.408 3.52367 24.516 3.84767 24.408L7.42967 22.968C8.18567 23.544 8.97767 24.012 9.85967 24.372L10.3997 28.188C10.4717 28.548 10.7597 28.8 11.1197 28.8H16.8797C17.2397 28.8 17.5457 28.548 17.5817 28.188L18.1217 24.372C19.0037 24.012 19.8137 23.526 20.5517 22.968L24.1337 24.408C24.4577 24.534 24.8357 24.408 25.0157 24.084L27.8957 19.098C28.0757 18.774 28.0037 18.396 27.7157 18.18L24.7097 15.804ZM13.9997 19.8C11.0297 19.8 8.59967 17.37 8.59967 14.4C8.59967 11.43 11.0297 9 13.9997 9C16.9697 9 19.3997 11.43 19.3997 14.4C19.3997 17.37 16.9697 19.8 13.9997 19.8Z" fill="#67A69D"/>
</svg>
