<svg width="24" height="24" viewBox="0 0 24 24" fill="none" xmlns="http://www.w3.org/2000/svg">
<path d="M11.9884 0.333313C5.54837 0.333313 0.333374 5.55998 0.333374 12C0.333374 18.44 5.54837 23.6666 11.9884 23.6666C18.44 23.6666 23.6667 18.44 23.6667 12C23.6667 5.55998 18.44 0.333313 11.9884 0.333313ZM12 21.3333C6.84337 21.3333 2.66671 17.1566 2.66671 12C2.66671 6.84331 6.84337 2.66665 12 2.66665C17.1567 2.66665 21.3334 6.84331 21.3334 12C21.3334 17.1566 17.1567 21.3333 12 21.3333ZM16.0834 10.8333C17.0517 10.8333 17.8334 10.0516 17.8334 9.08331C17.8334 8.11498 17.0517 7.33331 16.0834 7.33331C15.115 7.33331 14.3334 8.11498 14.3334 9.08331C14.3334 10.0516 15.115 10.8333 16.0834 10.8333ZM7.91671 10.8333C8.88504 10.8333 9.66671 10.0516 9.66671 9.08331C9.66671 8.11498 8.88504 7.33331 7.91671 7.33331C6.94837 7.33331 6.16671 8.11498 6.16671 9.08331C6.16671 10.0516 6.94837 10.8333 7.91671 10.8333ZM12 18.4166C14.7184 18.4166 17.0284 16.7133 17.9617 14.3333H6.03837C6.97171 16.7133 9.28171 18.4166 12 18.4166Z" fill="#C4C4C4"/>
</svg>
