<svg width="30" height="31" viewBox="0 0 30 31" fill="none" xmlns="http://www.w3.org/2000/svg">
<path d="M14.9999 2.79387C19.0049 2.79387 19.4799 2.80938 21.0624 2.88429C25.1274 3.07546 27.0261 5.0685 27.2111 9.238C27.2836 10.872 27.2974 11.3628 27.2974 15.5013C27.2974 19.6411 27.2824 20.1306 27.2111 21.7646C27.0249 25.9302 25.1311 27.9271 21.0624 28.1183C19.4799 28.1932 19.0074 28.2087 14.9999 28.2087C10.9949 28.2087 10.5199 28.1932 8.93863 28.1183C4.86363 27.9258 2.97488 25.9237 2.78988 21.7633C2.71738 20.1293 2.70238 19.6398 2.70238 15.5C2.70238 11.3615 2.71863 10.872 2.78988 9.23671C2.97613 5.0685 4.86988 3.07417 8.93863 2.883C10.5211 2.80938 10.9949 2.79387 14.9999 2.79387ZM14.9999 0C10.9261 0 10.4161 0.0180833 8.81613 0.093C3.36863 0.351333 0.341128 3.47458 0.0911279 9.10883C0.0173779 10.7635 -0.00012207 11.2905 -0.00012207 15.5C-0.00012207 19.7095 0.0173779 20.2378 0.0898779 21.8912C0.339878 27.5202 3.36238 30.6487 8.81488 30.907C10.4161 30.9819 10.9261 31 14.9999 31C19.0736 31 19.5849 30.9819 21.1849 30.907C26.6274 30.6487 29.6624 27.5254 29.9086 21.8912C29.9824 20.2378 29.9999 19.7095 29.9999 15.5C29.9999 11.2905 29.9824 10.7635 29.9099 9.11012C29.6649 3.48621 26.6386 0.352625 21.1861 0.0942917C19.5849 0.0180833 19.0736 0 14.9999 0V0ZM14.9999 7.54075C10.7461 7.54075 7.29738 11.1045 7.29738 15.5C7.29738 19.8955 10.7461 23.4605 14.9999 23.4605C19.2536 23.4605 22.7024 19.8968 22.7024 15.5C22.7024 11.1045 19.2536 7.54075 14.9999 7.54075ZM14.9999 20.6667C12.2386 20.6667 9.99988 18.3546 9.99988 15.5C9.99988 12.6467 12.2386 10.3333 14.9999 10.3333C17.7611 10.3333 19.9999 12.6467 19.9999 15.5C19.9999 18.3546 17.7611 20.6667 14.9999 20.6667ZM23.0074 5.36688C22.0124 5.36688 21.2061 6.2 21.2061 7.22687C21.2061 8.25375 22.0124 9.08687 23.0074 9.08687C24.0011 9.08687 24.8061 8.25375 24.8061 7.22687C24.8061 6.2 24.0011 5.36688 23.0074 5.36688Z" fill="white"/>
</svg>
