<svg width="131" height="108" viewBox="0 0 131 108" fill="none" xmlns="http://www.w3.org/2000/svg">
<g clip-path="url(#clip0)">
<g opacity="0.12">
<path opacity="0.12" d="M10.0528 21.4144C10.1109 18.0268 10.9595 14.6908 12.5406 11.6353C14.1217 8.57972 16.3978 5.87681 19.2129 3.71184C24.9958 -0.414001 33.5545 -1.32768 39.7075 2.28421C41.5734 3.38349 43.1618 4.83967 45.0277 5.92466C50.9185 9.35097 58.5982 8.63716 65.2293 6.68131C71.8603 4.72546 78.1521 1.62751 85.0144 0.585338C91.8768 -0.456829 99.8803 1.09928 103.658 6.52427C107.437 11.9493 105.355 19.944 99.942 24.1412C95.3157 27.7103 88.623 29.3663 86.0631 34.3916C85.1603 36.63 84.7564 39.0144 84.8756 41.4012C84.6752 48.2538 84.6752 55.6775 89.0085 61.0882C91.1708 63.4829 93.5945 65.6645 96.2409 67.5982C101.9 72.2951 106.588 78.3767 106.789 85.7005C106.844 88.0359 106.316 90.3515 105.247 92.4674C101.253 100.405 92.1544 101.319 84.1046 100.776C77.9362 100.348 71.5981 99.2629 65.5994 100.776C61.2506 101.847 57.4108 104.203 53.2625 105.773C47.0463 108.096 40.226 108.663 33.6624 107.4C29.6222 106.76 25.8711 105.043 22.8677 102.461C16.8689 96.8645 16.9614 87.8705 18.4264 80.1042C19.8914 72.3379 22.328 64.229 19.6601 56.7482C18.9868 54.9443 18.108 53.2119 17.0385 51.5802C11.4056 42.7944 8.90222 32.5902 9.88318 22.4138L10.0528 21.4144Z" fill="#AAAAAA"/>
</g>
<path d="M21.7574 18.8733H105.216C107.478 18.8733 109.647 19.7051 111.246 21.1856C112.845 22.6662 113.744 24.6742 113.744 26.7681V83.1165H13.2296V26.7681C13.2296 24.6742 14.1281 22.6662 15.7274 21.1856C17.3266 19.7051 19.4957 18.8733 21.7574 18.8733Z" fill="#EBF0F9"/>
<path d="M113.744 26.7681V31.0509C113.744 28.9571 112.845 26.9491 111.246 25.4685C109.647 23.9879 107.478 23.1562 105.216 23.1562H21.7574C19.497 23.1599 17.3303 23.9929 15.7319 25.4727C14.1335 26.9524 13.2337 28.9583 13.2296 31.0509V26.7681C13.2337 24.6754 14.1335 22.6695 15.7319 21.1898C17.3303 19.71 19.497 18.8771 21.7574 18.8733H105.216C107.478 18.8733 109.647 19.7051 111.246 21.1856C112.845 22.6662 113.744 24.6742 113.744 26.7681Z" fill="white"/>
<path d="M128.625 71.8811C128.748 71.833 128.855 71.7566 128.936 71.659C129.017 71.5614 129.069 71.4461 129.088 71.3243L129.52 68.469C129.548 68.2797 129.494 68.0876 129.37 67.935C129.246 67.7824 129.061 67.6818 128.856 67.6553C128.652 67.6288 128.445 67.6786 128.28 67.7937C128.115 67.9088 128.006 68.0798 127.977 68.2692L127.546 71.1244C127.527 71.2495 127.544 71.3769 127.596 71.4938C127.647 71.6107 127.731 71.7128 127.84 71.7898C127.948 71.8667 128.076 71.9157 128.211 71.9317C128.347 71.9477 128.484 71.9303 128.61 71.8811H128.625Z" fill="#C2D0E1"/>
<path d="M130.46 70.6246C130.665 70.6 130.85 70.5012 130.976 70.3499C131.102 70.1987 131.158 70.0073 131.131 69.818C131.105 69.6287 130.998 69.4569 130.834 69.3404C130.671 69.224 130.464 69.1724 130.26 69.197L127.176 68.7972C127.074 68.7841 126.971 68.7896 126.872 68.8133C126.773 68.8371 126.68 68.8787 126.599 68.9357C126.434 69.0508 126.325 69.2218 126.297 69.4111C126.268 69.6004 126.322 69.7925 126.446 69.9451C126.57 70.0978 126.755 70.1984 126.96 70.2249L130.044 70.6246C130.18 70.6607 130.324 70.6607 130.46 70.6246Z" fill="#C2D0E1"/>
<path d="M122.457 54.2499C122.287 53.8928 122.235 53.497 122.308 53.1126C122.382 52.7283 122.576 52.3728 122.868 52.0911C123.16 51.8095 123.536 51.6144 123.948 51.5307C124.359 51.447 124.789 51.4784 125.181 51.6209C125.574 51.7634 125.911 52.0107 126.152 52.3312C126.392 52.6518 126.525 53.0313 126.532 53.4215C126.539 53.8117 126.421 54.1951 126.192 54.5231C125.964 54.851 125.635 55.1087 125.248 55.2635C124.732 55.4697 124.15 55.4789 123.627 55.2891C123.104 55.0992 122.683 54.7257 122.457 54.2499ZM123.521 53.8216C123.597 53.9814 123.723 54.1166 123.883 54.2103C124.042 54.3039 124.228 54.3518 124.417 54.3479C124.605 54.3439 124.789 54.2883 124.943 54.1881C125.098 54.0879 125.217 53.9475 125.286 53.7847C125.354 53.6219 125.369 53.4439 125.329 53.2732C125.288 53.1025 125.194 52.9467 125.058 52.8255C124.922 52.7042 124.751 52.623 124.565 52.5919C124.379 52.5609 124.188 52.5814 124.014 52.651C123.801 52.7498 123.634 52.9179 123.546 53.1233C123.458 53.3287 123.454 53.557 123.536 53.7645L123.521 53.8216Z" fill="#C2D0E1"/>
<path d="M127.655 80.8863C128.241 80.6509 128.509 80.0203 128.255 79.4778C128.001 78.9354 127.32 78.6865 126.734 78.9219C126.148 79.1573 125.879 79.7879 126.133 80.3304C126.387 80.8728 127.069 81.1217 127.655 80.8863Z" fill="#C2D0E1"/>
<path d="M3.56066 43.4569C3.68984 43.484 3.82439 43.4799 3.95134 43.4449C4.07829 43.4099 4.19336 43.3452 4.28545 43.257L6.5215 41.1584C6.60169 41.0939 6.6666 41.0147 6.71217 40.9259C6.75774 40.837 6.78298 40.7404 6.78631 40.6421C6.78964 40.5438 6.77099 40.4459 6.73152 40.3546C6.69206 40.2632 6.63263 40.1804 6.55697 40.1114C6.48131 40.0423 6.39105 39.9885 6.29186 39.9533C6.19266 39.918 6.08667 39.9021 5.98054 39.9066C5.8744 39.9111 5.77041 39.9358 5.67509 39.9793C5.57976 40.0227 5.49517 40.0839 5.42661 40.1591L3.19056 42.2577C3.09354 42.3477 3.02426 42.4601 2.98988 42.5832C2.95549 42.7063 2.95726 42.8357 2.995 42.958C3.03273 43.0802 3.10507 43.1909 3.20452 43.2787C3.30396 43.3664 3.42692 43.4279 3.56066 43.4569Z" fill="#C2D0E1"/>
<path d="M5.8121 43.4427C5.97425 43.4746 6.14318 43.4572 6.29383 43.3932C6.44449 43.3292 6.56885 43.2219 6.64847 43.0873C6.72809 42.9527 6.75873 42.798 6.73585 42.646C6.71298 42.494 6.6378 42.3529 6.52146 42.2435L4.25457 40.1735C4.18487 40.0992 4.09934 40.0392 4.00337 39.997C3.90739 39.9548 3.80303 39.9314 3.69683 39.9283C3.59064 39.9252 3.4849 39.9425 3.38626 39.979C3.28761 40.0156 3.19819 40.0706 3.12359 40.1406C3.049 40.2107 2.99085 40.2942 2.95279 40.3861C2.91473 40.4779 2.89757 40.576 2.90241 40.6743C2.90725 40.7725 2.93397 40.8688 2.98089 40.9571C3.02782 41.0453 3.09394 41.1236 3.1751 41.1871L5.44199 43.2572C5.54388 43.3502 5.67223 43.4146 5.8121 43.4427Z" fill="#C2D0E1"/>
<path d="M4.77893 27.6532C4.87502 27.2719 5.09168 26.9258 5.40123 26.659C5.71078 26.3921 6.09919 26.2168 6.51689 26.1552C6.93459 26.0937 7.36262 26.1488 7.74635 26.3134C8.13008 26.4781 8.45211 26.7449 8.67132 27.0797C8.89054 27.4146 8.997 27.8023 8.97712 28.1935C8.95725 28.5846 8.81193 28.9613 8.55972 29.2757C8.3075 29.59 7.95984 29.8276 7.5611 29.9582C7.16236 30.0888 6.73064 30.1064 6.32103 30.0088C5.78252 29.8805 5.31963 29.5622 5.03143 29.122C4.74322 28.6817 4.65259 28.1546 4.77893 27.6532ZM5.90466 27.8959C5.86033 28.0695 5.87276 28.2514 5.94038 28.4185C6.00799 28.5855 6.12774 28.7302 6.28439 28.8341C6.44104 28.9379 6.62752 28.9963 6.82012 29.0018C7.01272 29.0074 7.20274 28.9597 7.36602 28.865C7.5293 28.7703 7.65846 28.6327 7.73709 28.4699C7.81572 28.307 7.84025 28.1262 7.80758 27.9504C7.77491 27.7746 7.68651 27.6117 7.55361 27.4826C7.42071 27.3534 7.24933 27.2637 7.06124 27.225C6.81189 27.1736 6.5507 27.2152 6.33423 27.3408C6.11776 27.4663 5.96344 27.6658 5.90466 27.8959Z" fill="#C2D0E1"/>
<path d="M2.90037 56.1957C3.0458 55.6199 2.65947 55.0439 2.03749 54.9093C1.4155 54.7747 0.79339 55.1323 0.647963 55.7081C0.502536 56.2839 0.888862 56.8599 1.51085 56.9945C2.13283 57.1291 2.75494 56.7715 2.90037 56.1957Z" fill="#C2D0E1"/>
<path d="M3.80737 66.3703C3.76848 66.2223 3.68552 66.0874 3.56792 65.9809C3.45032 65.8744 3.30281 65.8006 3.14215 65.7679C2.98149 65.7352 2.81413 65.7449 2.65912 65.7958C2.5041 65.8468 2.36764 65.937 2.26526 66.0562L1.60216 66.7129L0.939056 67.3696C0.83544 67.4743 0.763215 67.6023 0.729557 67.7408C0.695899 67.8793 0.701979 68.0236 0.747194 68.1593C0.792408 68.295 0.875183 68.4173 0.987294 68.5142C1.09941 68.6111 1.23695 68.6792 1.38627 68.7116L2.32695 68.9115L3.26763 69.1113C3.41728 69.1422 3.57305 69.1363 3.71948 69.0942C3.8659 69.0521 3.99789 68.9753 4.10234 68.8714C4.20678 68.7675 4.28005 68.6401 4.31488 68.5019C4.3497 68.3637 4.34486 68.2194 4.30084 68.0834L4.02326 67.2269L3.80737 66.3703Z" fill="#C2D0E1"/>
<path d="M52.6457 10.3217C52.6465 10.4449 52.6128 10.5662 52.548 10.6738C52.4831 10.7814 52.3893 10.8716 52.2756 10.9356L49.5615 12.4632C49.4755 12.5217 49.3773 12.563 49.2731 12.5845C49.169 12.606 49.0611 12.6073 48.9564 12.5882C48.8516 12.5692 48.7523 12.5302 48.6647 12.4737C48.5771 12.4173 48.5031 12.3446 48.4474 12.2603C48.3917 12.1761 48.3555 12.082 48.3411 11.9841C48.3268 11.8862 48.3345 11.7866 48.3638 11.6916C48.3932 11.5966 48.4435 11.5082 48.5116 11.4322C48.5798 11.3561 48.6642 11.294 48.7596 11.2497L51.52 9.70787C51.6372 9.64179 51.7714 9.60588 51.9086 9.60385C52.0459 9.60182 52.1812 9.63374 52.3006 9.69631C52.4201 9.75888 52.5194 9.84983 52.5881 9.95978C52.6569 10.0697 52.6928 10.1947 52.692 10.3217H52.6457Z" fill="#C2D0E1"/>
<path d="M52.1214 12.3347C52.1231 12.4917 52.0688 12.6448 51.9669 12.7704C51.865 12.8959 51.7213 12.9868 51.558 13.0291C51.3947 13.0714 51.2208 13.0626 51.0634 13.0042C50.906 12.9458 50.7738 12.8409 50.6872 12.7059L49.0372 10.1932C48.9506 10.0333 48.932 9.84909 48.9852 9.67709C49.0383 9.50508 49.1593 9.35782 49.3241 9.26445C49.489 9.17109 49.6857 9.13844 49.8753 9.17296C50.0649 9.20749 50.2336 9.30667 50.348 9.45087L51.998 11.9635C52.0762 12.074 52.1189 12.2027 52.1214 12.3347Z" fill="#C2D0E1"/>
<path d="M27.0623 11.2068C27.0654 11.5971 26.9431 11.9794 26.7112 12.3052C26.4792 12.6311 26.1479 12.8858 25.7593 13.0371C25.3707 13.1884 24.9424 13.2295 24.5286 13.1551C24.1147 13.0807 23.7341 12.8942 23.4349 12.6192C23.1358 12.3443 22.9316 11.9933 22.8482 11.6107C22.7648 11.2282 22.806 10.8313 22.9667 10.4705C23.1273 10.1097 23.4 9.80114 23.7503 9.58402C24.1006 9.3669 24.5126 9.25099 24.9342 9.25098C25.4959 9.25096 26.0349 9.45657 26.4336 9.82296C26.8322 10.1893 27.0582 10.6868 27.0623 11.2068ZM23.9781 11.2068C23.975 11.3853 24.0294 11.5606 24.1343 11.7103C24.2392 11.8601 24.3898 11.9776 24.567 12.0479C24.7443 12.1181 24.9401 12.138 25.1295 12.1049C25.319 12.0719 25.4935 11.9873 25.631 11.8621C25.7684 11.7369 25.8624 11.5767 25.9012 11.4019C25.9399 11.227 25.9216 11.0455 25.8486 10.8803C25.7755 10.7151 25.651 10.5738 25.4909 10.4743C25.3309 10.3748 25.1424 10.3217 24.9496 10.3217C24.6946 10.3217 24.4498 10.4145 24.268 10.5801C24.0863 10.7457 23.9821 10.9708 23.9781 11.2068Z" fill="#C2D0E1"/>
<path d="M75.4535 12.6345C76.0922 12.6345 76.61 12.1551 76.61 11.5638C76.61 10.9724 76.0922 10.493 75.4535 10.493C74.8147 10.493 74.2969 10.9724 74.2969 11.5638C74.2969 12.1551 74.8147 12.6345 75.4535 12.6345Z" fill="#C2D0E1"/>
<path d="M93.6657 8.5658C93.5274 8.49571 93.412 8.39246 93.3316 8.26687C93.2512 8.14128 93.2087 7.99798 93.2087 7.85199C93.2087 7.706 93.2512 7.5627 93.3316 7.43712C93.412 7.31153 93.5274 7.20827 93.6657 7.13818L94.4984 6.69561L95.3312 6.25305C95.4642 6.1836 95.6144 6.14742 95.7671 6.14808C95.9198 6.14874 96.0697 6.18622 96.202 6.25682C96.3343 6.32743 96.4444 6.42872 96.5216 6.55072C96.5987 6.67272 96.6402 6.81123 96.6419 6.95259V8.8085C96.6402 8.94986 96.5987 9.08836 96.5216 9.21037C96.4444 9.33237 96.3343 9.43366 96.202 9.50426C96.0697 9.57487 95.9198 9.61235 95.7671 9.61301C95.6144 9.61367 95.4642 9.57749 95.3312 9.50804L94.4984 9.06547L93.6657 8.5658Z" fill="#C2D0E1"/>
<path d="M13.2296 54.8352C12.8206 54.8352 12.4284 54.6848 12.1392 54.4171C11.85 54.1494 11.6875 53.7862 11.6875 53.4076V26.5111C11.6875 24.1068 12.7192 21.801 14.5556 20.1009C16.392 18.4008 18.8828 17.4457 21.4799 17.4457H86.6337C87.0427 17.4457 87.4349 17.5961 87.7241 17.8638C88.0133 18.1316 88.1758 18.4947 88.1758 18.8733C88.1758 19.2519 88.0133 19.6151 87.7241 19.8828C87.4349 20.1505 87.0427 20.3009 86.6337 20.3009H21.4799C19.7007 20.3009 17.9945 20.9552 16.7365 22.1199C15.4785 23.2845 14.7717 24.8641 14.7717 26.5111V53.4076C14.7717 53.7862 14.6092 54.1494 14.32 54.4171C14.0308 54.6848 13.6386 54.8352 13.2296 54.8352Z" fill="#606060"/>
<path d="M115.286 84.5442H11.6875V62.887C11.6875 62.5084 11.85 62.1453 12.1392 61.8776C12.4284 61.6098 12.8206 61.4594 13.2296 61.4594C13.6386 61.4594 14.0308 61.6098 14.32 61.8776C14.6092 62.1453 14.7717 62.5084 14.7717 62.887V81.6889H112.202V26.5111C112.202 24.8641 111.495 23.2845 110.237 22.1199C108.979 20.9552 107.273 20.3009 105.494 20.3009H94.9456C94.5366 20.3009 94.1444 20.1505 93.8552 19.8828C93.566 19.6151 93.4035 19.2519 93.4035 18.8733C93.4035 18.4947 93.566 18.1316 93.8552 17.8638C94.1444 17.5961 94.5366 17.4457 94.9456 17.4457H105.494C108.091 17.4457 110.581 18.4008 112.418 20.1009C114.254 21.801 115.286 24.1068 115.286 26.5111V84.5442Z" fill="#606060"/>
<path d="M118.941 81.5746H8.03266C5.8694 81.5746 4.11572 83.1981 4.11572 85.2008C4.11572 87.2034 5.8694 88.8269 8.03266 88.8269H118.941C121.104 88.8269 122.858 87.2034 122.858 85.2008C122.858 83.1981 121.104 81.5746 118.941 81.5746Z" fill="#EBF0F9"/>
<path d="M122.796 85.4006H4.17749C4.3018 84.492 4.67323 83.6274 5.25696 82.888C5.56292 82.4654 5.97247 82.1158 6.4522 81.8677C6.93192 81.6195 7.46823 81.48 8.01733 81.4603H118.941C119.987 81.5799 120.952 82.0436 121.66 82.7669C122.367 83.4902 122.771 84.4249 122.796 85.4006Z" fill="#C2D0E1"/>
<path d="M118.941 90.2546H8.03277C6.58495 90.2546 5.19642 89.7221 4.17265 88.7744C3.14888 87.8266 2.57373 86.5411 2.57373 85.2008C2.57373 83.8604 3.14888 82.575 4.17265 81.6272C5.19642 80.6794 6.58495 80.147 8.03277 80.147H29.7456C30.1546 80.147 30.5468 80.2974 30.836 80.5651C31.1252 80.8328 31.2877 81.196 31.2877 81.5746C31.2877 81.9532 31.1252 82.3164 30.836 82.5841C30.5468 82.8518 30.1546 83.0022 29.7456 83.0022H8.03277C7.40293 83.0022 6.79888 83.2339 6.35351 83.6462C5.90814 84.0585 5.65794 84.6177 5.65794 85.2008C5.65794 85.7839 5.90814 86.3431 6.35351 86.7554C6.79888 87.1677 7.40293 87.3993 8.03277 87.3993H118.941C119.571 87.3993 120.175 87.1677 120.62 86.7554C121.065 86.3431 121.316 85.7839 121.316 85.2008C121.316 84.6177 121.065 84.0585 120.62 83.6462C120.175 83.2339 119.571 83.0022 118.941 83.0022H38.3197C37.9107 83.0022 37.5184 82.8518 37.2292 82.5841C36.94 82.3164 36.7776 81.9532 36.7776 81.5746C36.7776 81.196 36.94 80.8328 37.2292 80.5651C37.5184 80.2974 37.9107 80.147 38.3197 80.147H118.941C120.389 80.147 121.777 80.6794 122.801 81.6272C123.825 82.575 124.4 83.8604 124.4 85.2008C124.4 86.5411 123.825 87.8266 122.801 88.7744C121.777 89.7221 120.389 90.2546 118.941 90.2546Z" fill="#606060"/>
<path d="M21.4799 28.8667H106.296V73.4943C106.296 73.7783 106.174 74.0506 105.957 74.2514C105.74 74.4522 105.446 74.565 105.139 74.565H22.6364C22.3297 74.565 22.0355 74.4522 21.8186 74.2514C21.6017 74.0506 21.4799 73.7783 21.4799 73.4943V28.8667Z" fill="white"/>
<path d="M90.8745 67.4124H35.0041C34.2884 67.4124 33.6019 67.1492 33.0958 66.6807C32.5897 66.2122 32.3054 65.5767 32.3054 64.9141V39.3881C32.3095 38.4957 32.6942 37.6409 33.3758 37.0099C34.0575 36.3789 34.9808 36.0227 35.9448 36.0189H89.9184C90.8824 36.0227 91.8057 36.3789 92.4873 37.0099C93.1689 37.6409 93.5537 38.4957 93.5577 39.3881V64.9284C93.5537 65.586 93.2697 66.2157 92.7674 66.6807C92.265 67.1458 91.5849 67.4087 90.8745 67.4124ZM35.3588 64.5572H90.489V39.3881C90.489 39.2518 90.4305 39.1211 90.3264 39.0247C90.2222 38.9283 90.081 38.8742 89.9338 38.8742H35.9602C35.813 38.8742 35.6718 38.9283 35.5676 39.0247C35.4635 39.1211 35.405 39.2518 35.405 39.3881L35.3588 64.5572Z" fill="#606060"/>
<path d="M92.0311 45.9982H34.9733C34.5643 45.9982 34.172 45.8478 33.8828 45.5801C33.5936 45.3123 33.4312 44.9492 33.4312 44.5706C33.4312 44.1919 33.5936 43.8288 33.8828 43.5611C34.172 43.2934 34.5643 43.1429 34.9733 43.1429H92.0311C92.4401 43.1429 92.8323 43.2934 93.1215 43.5611C93.4107 43.8288 93.5732 44.1919 93.5732 44.5706C93.5732 44.9492 93.4107 45.3123 93.1215 45.5801C92.8323 45.8478 92.4401 45.9982 92.0311 45.9982Z" fill="#606060"/>
<path d="M54.2495 51.7087H48.0811C45.9519 51.7087 44.2258 53.3067 44.2258 55.2778C44.2258 57.2489 45.9519 58.8469 48.0811 58.8469H54.2495C56.3787 58.8469 58.1048 57.2489 58.1048 55.2778C58.1048 53.3067 56.3787 51.7087 54.2495 51.7087Z" fill="#E9D038"/>
<path d="M84.3205 54.564H64.2732C63.8642 54.564 63.4719 54.4136 63.1827 54.1458C62.8935 53.8781 62.7311 53.515 62.7311 53.1364C62.7311 52.7577 62.8935 52.3946 63.1827 52.1269C63.4719 51.8591 63.8642 51.7087 64.2732 51.7087H84.3205C84.7295 51.7087 85.1218 51.8591 85.411 52.1269C85.7002 52.3946 85.8626 52.7577 85.8626 53.1364C85.8626 53.515 85.7002 53.8781 85.411 54.1458C85.1218 54.4136 84.7295 54.564 84.3205 54.564Z" fill="#606060"/>
<path d="M79.6942 58.8468H64.2732C63.8642 58.8468 63.4719 58.6964 63.1827 58.4287C62.8935 58.1609 62.7311 57.7978 62.7311 57.4192C62.7311 57.0406 62.8935 56.6774 63.1827 56.4097C63.4719 56.142 63.8642 55.9916 64.2732 55.9916H79.6942C80.1032 55.9916 80.4954 56.142 80.7846 56.4097C81.0738 56.6774 81.2363 57.0406 81.2363 57.4192C81.2363 57.7978 81.0738 58.1609 80.7846 58.4287C80.4954 58.6964 80.1032 58.8468 79.6942 58.8468Z" fill="#606060"/>
<path opacity="0.5" d="M21.4644 28.8667H106.28V32.0789C106.28 32.3628 106.158 32.6352 105.941 32.836C105.724 33.0368 105.43 33.1496 105.123 33.1496H22.6056C22.2988 33.1496 22.0046 33.0368 21.7877 32.836C21.5708 32.6352 21.449 32.3628 21.449 32.0789V28.8667H21.4644Z" fill="#AAAAAA"/>
<path d="M104.723 76.3779H22.22C21.5043 76.3779 20.8179 76.1147 20.3118 75.6462C19.8057 75.1777 19.5214 74.5422 19.5214 73.8796V27.8386H107.421V41.7294C107.421 42.1081 107.259 42.4712 106.97 42.7389C106.68 43.0067 106.288 43.1571 105.879 43.1571C105.47 43.1571 105.078 43.0067 104.789 42.7389C104.499 42.4712 104.337 42.1081 104.337 41.7294V30.6939H22.6056V73.5227H104.337V48.5392C104.337 48.1606 104.499 47.7975 104.789 47.5297C105.078 47.262 105.47 47.1116 105.879 47.1116C106.288 47.1116 106.68 47.262 106.97 47.5297C107.259 47.7975 107.421 48.1606 107.421 48.5392V73.8082C107.432 74.1423 107.369 74.4748 107.238 74.7862C107.107 75.0976 106.91 75.3815 106.659 75.6211C106.407 75.8607 106.106 76.0512 105.773 76.1812C105.441 76.3112 105.084 76.3781 104.723 76.3779Z" fill="#606060"/>
<path d="M54.2495 60.2745H48.0811C46.6496 60.2745 45.2768 59.7481 44.2646 58.811C43.2524 57.874 42.6837 56.603 42.6837 55.2778C42.6837 53.9526 43.2524 52.6817 44.2646 51.7446C45.2768 50.8076 46.6496 50.2811 48.0811 50.2811H54.2495C55.681 50.2811 57.0538 50.8076 58.066 51.7446C59.0782 52.6817 59.6468 53.9526 59.6468 55.2778C59.6468 56.603 59.0782 57.874 58.066 58.811C57.0538 59.7481 55.681 60.2745 54.2495 60.2745ZM48.0811 53.1364C47.4676 53.1364 46.8792 53.362 46.4454 53.7636C46.0116 54.1652 45.7679 54.7099 45.7679 55.2778C45.7679 55.8458 46.0116 56.3904 46.4454 56.792C46.8792 57.1936 47.4676 57.4193 48.0811 57.4193H54.2495C54.863 57.4193 55.4513 57.1936 55.8851 56.792C56.3189 56.3904 56.5626 55.8458 56.5626 55.2778C56.5626 54.7099 56.3189 54.1652 55.8851 53.7636C55.4513 53.362 54.863 53.1364 54.2495 53.1364H48.0811Z" fill="#606060"/>
</g>
<defs>
<clipPath id="clip0">
<rect x="0.384644" width="130.308" height="108" fill="white"/>
</clipPath>
</defs>
</svg>
