<svg width="30" height="29" viewBox="0 0 30 29" fill="none" xmlns="http://www.w3.org/2000/svg">
<path fill-rule="evenodd" clip-rule="evenodd" d="M29.9999 12.3494C29.9999 5.54062 23.2711 0 14.9999 0C6.72988 0 -0.00012207 5.54062 -0.00012207 12.3494C-0.00012207 18.4544 5.33613 23.5676 12.5449 24.5339C13.0336 24.6405 13.6974 24.8611 13.8661 25.2847C14.0174 25.669 13.9649 26.2713 13.9149 26.6607L13.7011 27.9631C13.6349 28.3473 13.3986 29.4671 14.9999 28.7836C16.6011 28.0988 23.6386 23.6234 26.7849 19.9483C28.9586 17.5299 29.9999 15.0747 29.9999 12.3494ZM6.26488 9.05851C6.42613 9.05851 6.55738 9.19167 6.55738 9.35526V14.622H9.41613C9.57738 14.622 9.70738 14.7538 9.70738 14.9174V15.9852C9.70738 16.1488 9.57738 16.282 9.41613 16.282H5.21238C5.13363 16.282 5.06363 16.2503 5.01113 16.1996L5.00988 16.1983L5.00738 16.1958L5.00613 16.1945L5.00238 16.1907C4.95238 16.1374 4.92113 16.0651 4.92113 15.9865V9.35526C4.92113 9.19167 5.05113 9.05851 5.21238 9.05851H6.26488ZM25.0049 9.05851C25.1661 9.05851 25.2961 9.19167 25.2961 9.35526V10.4231C25.2961 10.5867 25.1661 10.7198 25.0049 10.7198H22.1461V11.8396H25.0049C25.1661 11.8396 25.2961 11.9728 25.2961 12.1364V13.2041C25.2961 13.3677 25.1661 13.5009 25.0049 13.5009H22.1461V14.622H25.0049C25.1661 14.622 25.2961 14.7551 25.2961 14.9174V15.9852C25.2961 16.1488 25.1661 16.282 25.0049 16.282H20.8011C20.7224 16.282 20.6511 16.2503 20.5986 16.1996L20.5949 16.1945L20.5911 16.1907C20.5411 16.1374 20.5086 16.0651 20.5086 15.9865V9.35526C20.5086 9.27664 20.5399 9.20435 20.5899 9.15109L20.5949 9.14602L20.5986 9.14221C20.6511 9.09148 20.7224 9.05851 20.8011 9.05851H25.0049ZM11.9524 9.05978C12.1136 9.05978 12.2449 9.19167 12.2449 9.35526V15.9865C12.2449 16.1488 12.1136 16.282 11.9524 16.282H10.8999C10.7386 16.282 10.6074 16.1488 10.6074 15.9865V9.35526C10.6074 9.19167 10.7386 9.05978 10.8999 9.05978H11.9524ZM14.6111 9.05978H14.6211L14.6361 9.06105L14.6524 9.06232L14.6649 9.06358L14.6811 9.06739L14.6911 9.07119L14.7086 9.07627L14.7186 9.08007L14.7349 9.08768L14.7436 9.09148L14.7599 9.10036L14.7686 9.10543L14.7836 9.11685L14.7911 9.12192L14.8074 9.13587L14.8124 9.14094L14.8299 9.1587L14.8324 9.16123L14.8549 9.1904L17.8499 13.2942V9.35526C17.8499 9.19167 17.9811 9.05978 18.1424 9.05978H19.1936C19.3561 9.05978 19.4861 9.19167 19.4861 9.35526V15.9865C19.4861 16.1488 19.3561 16.282 19.1936 16.282H18.1424L18.0674 16.2718L18.0624 16.2706L18.0436 16.2642L18.0349 16.2604L18.0199 16.2554L18.0061 16.2477L17.9974 16.2439L17.9799 16.2325L17.9774 16.23L17.9024 16.1564L14.9036 12.0476V15.9865C14.9036 16.1488 14.7736 16.282 14.6111 16.282H13.5599C13.3986 16.282 13.2674 16.1488 13.2674 15.9865V9.35526C13.2674 9.19167 13.3986 9.05978 13.5599 9.05978H14.6111Z" fill="white"/>
</svg>
