<svg width="93" height="103" viewBox="0 0 93 103" fill="none" xmlns="http://www.w3.org/2000/svg">
<g clip-path="url(#clip0)">
<g opacity="0.12">
<path opacity="0.12" d="M10.902 24.9364C10.9488 22.0299 11.63 19.1678 12.8989 16.5465C14.1678 13.9251 15.9943 11.6063 18.2533 9.74935C22.8859 6.20662 29.7656 5.42393 34.7034 8.54098C36.2014 9.48845 37.4774 10.7243 38.9754 11.658C43.7052 14.5966 49.8636 13.9924 55.1897 12.3034C60.5159 10.6144 65.5647 7.99172 71.0712 7.08544C76.5776 6.17916 82.9996 7.52485 86.0371 12.1798C89.0747 16.8348 87.4242 23.6868 83.0551 27.2845C79.3794 30.3466 73.97 31.761 71.9589 36.0864C71.2133 38.0166 70.8734 40.0772 70.9602 42.142C70.7383 48.0602 70.7383 54.3081 74.2613 59.0454C76.0126 61.0695 77.9693 62.91 80.1007 64.538C84.6363 68.5614 88.4228 73.7931 88.5615 80.0684C88.6328 82.0869 88.2292 84.0941 87.3826 85.9317C84.1785 92.7975 76.8828 93.539 70.4193 93.0584C65.4537 92.6876 60.3911 91.7676 55.5781 93.0584C52.0828 93.9784 49.0036 95.9969 45.6609 97.3426C40.671 99.3324 35.1966 99.8104 29.932 98.7158C26.7067 98.1562 23.7146 96.6823 21.3186 94.4727C16.5056 89.6804 16.575 81.9496 17.7539 75.2486C18.9329 68.5476 20.8747 61.627 18.7387 55.2006C18.1988 53.667 17.4967 52.1942 16.6443 50.8065C12.1052 43.2913 10.0673 34.5536 10.8188 25.8289L10.902 24.9364Z" fill="#AAAAAA"/>
</g>
<path d="M42.9133 58.6256C41.468 56.8567 38.8479 56.5827 37.0612 58.0136C35.2745 59.4444 34.9977 62.0383 36.443 63.8071L66.1018 100.105C67.5471 101.874 70.1672 102.148 71.9539 100.717C73.7406 99.2864 74.0174 96.6925 72.5721 94.9237L42.9133 58.6256Z" fill="#E9D038"/>
<path d="M26.7324 94.9326C25.2874 96.7017 25.5646 99.2955 27.3516 100.726C29.1385 102.157 31.7586 101.882 33.2035 100.113L62.856 63.8098C64.301 62.0408 64.0237 59.4469 62.2368 58.0164C60.4498 56.5859 57.8298 56.8603 56.3848 58.6294L26.7324 94.9326Z" fill="#E9D038"/>
<path d="M69.3513 102.986C68.5248 102.987 67.7085 102.805 66.9622 102.453C66.2159 102.102 65.5583 101.589 65.0376 100.954L35.3553 64.6754C34.8381 64.1224 34.4415 63.47 34.1899 62.7587C33.9384 62.0475 33.8374 61.2926 33.8932 60.541C33.949 59.7895 34.1605 59.0573 34.5144 58.3901C34.8683 57.7229 35.3571 57.135 35.9504 56.6628C36.5436 56.1907 37.2287 55.8445 37.963 55.6457C38.6972 55.4469 39.4649 55.3998 40.2183 55.5074C40.9717 55.615 41.6947 55.8749 42.3423 56.2709C42.9899 56.667 43.5482 57.1907 43.9826 57.8096L73.651 94.0608C74.1105 94.6214 74.4539 95.2662 74.6615 95.9582C74.8691 96.6503 74.9368 97.3761 74.8608 98.0941C74.7848 98.8122 74.5665 99.5083 74.2185 100.143C73.8705 100.777 73.3996 101.337 72.8327 101.792C71.8436 102.571 70.6153 102.992 69.3513 102.986ZM39.6689 58.4687C39.1393 58.4563 38.6171 58.5943 38.1642 58.8665C37.7113 59.1386 37.3465 59.5334 37.1131 60.0043C36.8797 60.4751 36.7873 61.0023 36.847 61.5235C36.9066 62.0446 37.1158 62.538 37.4497 62.9452L67.1736 99.2375C67.6357 99.8033 68.3056 100.164 69.0363 100.242C69.7671 100.319 70.4989 100.106 71.0712 99.6495C71.6427 99.1921 72.0074 98.5289 72.0855 97.8054C72.1635 97.082 71.9483 96.3575 71.4873 95.7909L41.8327 59.4848C41.5716 59.1662 41.2417 58.9096 40.8673 58.7337C40.4928 58.5579 40.0834 58.4673 39.6689 58.4687Z" fill="#606060"/>
<path d="M29.9597 102.986C28.6923 102.985 27.4637 102.553 26.4783 101.764C25.3374 100.847 24.6105 99.5199 24.4571 98.0731C24.3037 96.6264 24.7363 95.1784 25.6599 94.047L55.3006 57.7547C55.735 57.1358 56.2933 56.6121 56.9409 56.216C57.5885 55.8199 58.3115 55.56 59.0649 55.4525C59.8183 55.3449 60.586 55.392 61.3203 55.5908C62.0545 55.7895 62.7396 56.1358 63.3329 56.6079C63.9262 57.08 64.4149 57.668 64.7688 58.3352C65.1227 59.0024 65.3342 59.7345 65.39 60.4861C65.4458 61.2376 65.3448 61.9925 65.0933 62.7038C64.8418 63.415 64.4451 64.0675 63.9279 64.6204L34.2734 100.968C33.7513 101.601 33.0931 102.11 32.3469 102.459C31.6007 102.809 30.7851 102.989 29.9597 102.986ZM59.642 58.4687C59.2276 58.4673 58.8181 58.5579 58.4437 58.7337C58.0692 58.9095 57.7394 59.1662 57.4783 59.4848L27.7405 95.7909C27.2794 96.3575 27.0643 97.082 27.1423 97.8054C27.2203 98.5288 27.5851 99.1921 28.1566 99.6495C28.7288 100.106 29.4607 100.319 30.1914 100.242C30.9222 100.164 31.5921 99.8033 32.0541 99.2375L61.778 62.9452C62.1073 62.5434 62.3152 62.0577 62.3778 61.5441C62.4405 61.0304 62.3553 60.5097 62.132 60.0419C61.9088 59.5741 61.5567 59.1782 61.1161 58.8999C60.6756 58.6216 60.1646 58.4721 59.642 58.4687Z" fill="#606060"/>
<path d="M40.9588 5.49258C40.9649 5.61078 40.94 5.72853 40.8865 5.83439C40.833 5.94025 40.7528 6.03063 40.6537 6.09676L38.268 7.63469C38.1924 7.68789 38.107 7.72582 38.0166 7.74633C37.9262 7.76684 37.8326 7.76952 37.7411 7.75422C37.6497 7.73892 37.5622 7.70593 37.4836 7.65715C37.405 7.60837 37.3369 7.54475 37.2832 7.46991C37.2295 7.39508 37.1911 7.3105 37.1704 7.221C37.1497 7.13151 37.147 7.03885 37.1625 6.94832C37.1779 6.85779 37.2112 6.77115 37.2605 6.69337C37.3098 6.61559 37.3741 6.54817 37.4496 6.49497L39.8353 4.92958C39.9382 4.86064 40.058 4.82034 40.182 4.8129C40.3061 4.80546 40.4299 4.83116 40.5404 4.88729C40.651 4.94343 40.7443 5.02795 40.8106 5.13202C40.8769 5.23608 40.9137 5.35587 40.9172 5.47884L40.9588 5.49258Z" fill="#C2D0E1"/>
<path d="M40.5567 7.42878C40.566 7.58045 40.5241 7.73087 40.4378 7.85647C40.3514 7.98208 40.2254 8.07577 40.0795 8.12288C39.9335 8.16999 39.776 8.16784 39.6314 8.11678C39.4869 8.06572 39.3635 7.96863 39.2806 7.84072L37.6994 5.49263C37.635 5.41955 37.5869 5.33378 37.5584 5.24096C37.5298 5.14815 37.5215 5.0504 37.5339 4.95416C37.5463 4.85792 37.5792 4.76538 37.6303 4.68263C37.6815 4.59988 37.7498 4.52881 37.8307 4.47409C37.9116 4.41938 38.0034 4.38226 38.0998 4.3652C38.1963 4.34813 38.2953 4.3515 38.3904 4.37508C38.4855 4.39866 38.5744 4.44192 38.6513 4.50201C38.7283 4.56209 38.7915 4.63764 38.8368 4.72367L40.418 7.08549C40.4957 7.18485 40.5438 7.30377 40.5567 7.42878Z" fill="#C2D0E1"/>
<path d="M18.0314 7.2228C18.0447 7.59392 17.9468 7.96065 17.75 8.27676C17.5531 8.59288 17.2662 8.84426 16.9253 8.99921C16.5844 9.15417 16.2048 9.20578 15.8344 9.14754C15.4639 9.0893 15.1191 8.92381 14.8435 8.67193C14.5679 8.42005 14.3737 8.09304 14.2855 7.7321C14.1973 7.37117 14.2189 6.99245 14.3477 6.64367C14.4765 6.2949 14.7067 5.99166 15.0093 5.77216C15.3118 5.55267 15.6732 5.42674 16.048 5.41024C16.5534 5.39164 17.0457 5.57184 17.4174 5.91147C17.789 6.2511 18.0098 6.72254 18.0314 7.2228ZM15.2574 7.33266C15.2657 7.50019 15.3237 7.66157 15.4243 7.79654C15.5249 7.93151 15.6636 8.03405 15.8228 8.09129C15.9821 8.14854 16.1549 8.15793 16.3195 8.11829C16.4841 8.07866 16.6333 7.99176 16.7482 7.86851C16.8631 7.74525 16.9387 7.59114 16.9655 7.42551C16.9922 7.25988 16.969 7.09011 16.8986 6.93752C16.8283 6.78493 16.7139 6.65632 16.57 6.56782C16.4261 6.47933 16.2589 6.4349 16.0896 6.44011C15.8602 6.45081 15.6444 6.55044 15.4886 6.71746C15.3329 6.88449 15.2498 7.10548 15.2574 7.33266Z" fill="#C2D0E1"/>
<path d="M61.5479 6.89305C62.122 6.87052 62.5689 6.39154 62.5461 5.8232C62.5234 5.25487 62.0395 4.81241 61.4655 4.83494C60.8914 4.85747 60.4445 5.33646 60.4672 5.90479C60.49 6.47312 60.9738 6.91558 61.5479 6.89305Z" fill="#C2D0E1"/>
<path d="M77.7566 2.3893C77.6322 2.32188 77.5284 2.22256 77.456 2.10177C77.3837 1.98097 77.3456 1.84314 77.3456 1.70272C77.3456 1.56231 77.3837 1.42447 77.456 1.30368C77.5284 1.18288 77.6322 1.08357 77.7566 1.01615L78.4917 0.549276L79.2268 0.0824049C79.3473 0.00504224 79.4869 -0.0383588 79.6304 -0.043137C79.774 -0.0479151 79.9161 -0.0138899 80.0416 0.0552844C80.1671 0.124459 80.2712 0.226169 80.3427 0.34949C80.4142 0.472812 80.4504 0.613087 80.4474 0.755248V1.62033V2.48542C80.453 2.62212 80.4223 2.75788 80.3583 2.87917C80.2944 3.00046 80.1994 3.10303 80.0829 3.17666C79.9665 3.25029 79.8325 3.29241 79.6945 3.29882C79.5564 3.30523 79.4191 3.27571 79.2962 3.21319L78.5195 2.74632L77.7566 2.3893Z" fill="#C2D0E1"/>
<path d="M89.5463 56.1481C89.4302 56.1166 89.3244 56.0557 89.2393 55.9714C89.1542 55.8872 89.0927 55.7824 89.0608 55.6675L88.2841 52.9212C88.2345 52.7391 88.2599 52.5449 88.3548 52.3814C88.4498 52.2179 88.6064 52.0984 88.7904 52.0492C88.9743 52.0001 89.1704 52.0253 89.3356 52.1193C89.5008 52.2133 89.6215 52.3684 89.6711 52.5504L90.4479 55.2967C90.4815 55.4135 90.4832 55.537 90.4529 55.6546C90.4225 55.7722 90.3613 55.8798 90.2752 55.9663C90.1892 56.0529 90.0816 56.1153 89.9633 56.1472C89.845 56.1791 89.7203 56.1794 89.6018 56.1481H89.5463Z" fill="#C2D0E1"/>
<path d="M87.7848 55.1732C87.6009 55.1732 87.4245 55.1008 87.2944 54.9721C87.1644 54.8433 87.0913 54.6687 87.0913 54.4866C87.0913 54.3045 87.1644 54.1299 87.2944 54.0011C87.4245 53.8724 87.6009 53.8 87.7848 53.8L90.5589 53.0311C90.7428 52.9819 90.9389 53.0071 91.1041 53.1011C91.2693 53.1951 91.39 53.3502 91.4396 53.5323C91.4893 53.7143 91.4638 53.9085 91.3689 54.072C91.274 54.2356 91.1173 54.355 90.9334 54.4042L88.1593 55.1732C88.0369 55.2079 87.9072 55.2079 87.7848 55.1732Z" fill="#C2D0E1"/>
<path d="M90.3508 39.8214C89.9857 39.7263 89.6572 39.5264 89.4065 39.2468C89.1558 38.9673 88.9943 38.6206 88.9422 38.2504C88.89 37.8802 88.9497 37.503 89.1135 37.1663C89.2774 36.8296 89.5382 36.5483 89.8632 36.358C90.1881 36.1676 90.5627 36.0767 90.9397 36.0966C91.3167 36.1164 91.6794 36.2462 91.9821 36.4697C92.2847 36.6931 92.5139 37.0002 92.6408 37.3522C92.7676 37.7043 92.7864 38.0856 92.6949 38.4482C92.6335 38.6916 92.5239 38.9204 92.3724 39.1215C92.221 39.3226 92.0307 39.4919 91.8127 39.6197C91.5946 39.7474 91.3531 39.831 91.1022 39.8656C90.8512 39.9002 90.5959 39.8852 90.3508 39.8214ZM91.0998 37.1712C90.9363 37.1264 90.7631 37.1304 90.6019 37.1828C90.4407 37.2352 90.2988 37.3337 90.194 37.4657C90.0892 37.5978 90.0262 37.7576 90.0129 37.9251C89.9997 38.0925 90.0367 38.2601 90.1194 38.4068C90.2022 38.5534 90.3268 38.6725 90.4778 38.7492C90.6287 38.8258 90.7992 38.8566 90.9678 38.8375C91.1364 38.8185 91.2955 38.7505 91.4251 38.6421C91.5547 38.5338 91.649 38.3899 91.6963 38.2285C91.7483 38.0139 91.7155 37.7878 91.6046 37.5963C91.4938 37.4049 91.3132 37.2626 91.0998 37.1987V37.1712Z" fill="#C2D0E1"/>
<path d="M92.9409 64.3544C93.096 63.8084 92.7747 63.2413 92.2231 63.0877C91.6716 62.9341 91.0987 63.2523 90.9436 63.7983C90.7885 64.3443 91.1098 64.9115 91.6614 65.0651C92.2129 65.2186 92.7858 64.9005 92.9409 64.3544Z" fill="#C2D0E1"/>
<path d="M8.46089 47.264C8.34293 47.2522 8.22999 47.2106 8.13286 47.1433C8.03572 47.076 7.95765 46.9852 7.90608 46.8795L6.65776 44.3391C6.61768 44.258 6.59415 44.1698 6.58849 44.0797C6.58284 43.9895 6.59518 43.8992 6.6248 43.8137C6.65442 43.7283 6.70075 43.6495 6.76114 43.5818C6.82154 43.5141 6.89481 43.4588 6.97677 43.4191C7.05874 43.3795 7.14779 43.3562 7.23886 43.3506C7.32992 43.345 7.4212 43.3572 7.5075 43.3865C7.59379 43.4158 7.6734 43.4617 7.74179 43.5215C7.81018 43.5813 7.86601 43.6538 7.90608 43.735L9.1544 46.2753C9.20976 46.3854 9.23421 46.5083 9.2252 46.631C9.21618 46.7537 9.17402 46.8717 9.10314 46.9728C9.03226 47.0738 8.93525 47.1542 8.82227 47.2054C8.70929 47.2566 8.58447 47.2768 8.46089 47.264Z" fill="#C2D0E1"/>
<path d="M6.54679 46.6185C6.3951 46.6053 6.25202 46.543 6.13965 46.4412C6.02727 46.3395 5.95185 46.2039 5.92503 46.0555C5.8982 45.9071 5.92147 45.7541 5.99122 45.6201C6.06098 45.4861 6.17335 45.3785 6.311 45.314L8.877 44.0782C8.95896 44.0385 9.04802 44.0152 9.13908 44.0096C9.23014 44.004 9.32142 44.0162 9.40772 44.0456C9.49401 44.0749 9.57363 44.1208 9.64202 44.1805C9.7104 44.2403 9.76623 44.3129 9.8063 44.394C9.84637 44.4752 9.86991 44.5633 9.87556 44.6535C9.88122 44.7436 9.86888 44.834 9.83926 44.9194C9.80964 45.0049 9.76331 45.0837 9.70291 45.1514C9.64252 45.2191 9.56925 45.2744 9.48729 45.314L6.93516 46.5499C6.81541 46.6103 6.68026 46.6342 6.54679 46.6185Z" fill="#C2D0E1"/>
<path d="M10.2362 34.2052C9.86299 34.1685 9.50906 34.0232 9.21906 33.7877C8.92906 33.5521 8.71596 33.2369 8.6066 32.8817C8.49724 32.5265 8.49652 32.1472 8.60453 31.7916C8.71254 31.4359 8.92444 31.1199 9.21355 30.8833C9.50266 30.6467 9.85603 30.5001 10.2291 30.462C10.6023 30.4238 10.9784 30.4959 11.3103 30.669C11.6421 30.8422 11.9147 31.1087 12.0939 31.4349C12.273 31.7612 12.3505 32.1327 12.3168 32.5025C12.2676 33.0009 12.0212 33.4597 11.6313 33.7788C11.2415 34.0978 10.7399 34.2511 10.2362 34.2052ZM10.4998 31.4589C10.3308 31.4435 10.1609 31.478 10.0116 31.558C9.86235 31.638 9.74032 31.7599 9.66091 31.9084C9.5815 32.0569 9.54827 32.2254 9.56539 32.3926C9.58251 32.5598 9.64923 32.7182 9.75713 32.8479C9.86504 32.9776 10.0093 33.0728 10.1718 33.1215C10.3342 33.1702 10.5076 33.1702 10.6701 33.1215C10.8325 33.0729 10.9768 32.9777 11.0847 32.848C11.1926 32.7183 11.2594 32.5598 11.2765 32.3927C11.2922 32.1697 11.2201 31.9493 11.0753 31.7778C10.9305 31.6063 10.7242 31.497 10.4998 31.4727V31.4589Z" fill="#C2D0E1"/>
<path d="M7.14261 59.2691C7.19678 58.7029 6.77702 58.2004 6.20506 58.1468C5.63309 58.0931 5.12551 58.5087 5.07135 59.0749C5.01718 59.6412 5.43694 60.1437 6.0089 60.1973C6.58087 60.2509 7.08845 59.8354 7.14261 59.2691Z" fill="#C2D0E1"/>
<path d="M1.15127 68.0946C1.22992 67.9766 1.3394 67.8819 1.46808 67.8205C1.59676 67.7591 1.73983 67.7334 1.88208 67.7461C2.02434 67.7587 2.16048 67.8093 2.27602 67.8925C2.39156 67.9756 2.48219 68.0882 2.53829 68.2182L2.89892 69.0009L3.25954 69.7836C3.31559 69.908 3.33786 70.0448 3.32415 70.1804C3.31044 70.3159 3.26122 70.4456 3.18137 70.5565C3.10151 70.6675 2.99378 70.7559 2.86883 70.813C2.74388 70.8701 2.60604 70.8939 2.46894 70.8821L1.59511 70.7997L0.721289 70.7173C0.584974 70.7032 0.454725 70.6541 0.343321 70.5751C0.231917 70.496 0.143187 70.3897 0.0858376 70.2664C0.0284878 70.1432 0.00448846 70.0073 0.0161945 69.8721C0.0279005 69.7369 0.0749097 69.607 0.152609 69.4952L0.651938 68.7949L1.15127 68.0946Z" fill="#C2D0E1"/>
<path d="M20.5558 68.5889V24.4833H78.7276V68.5889" fill="white"/>
<path opacity="0.5" d="M77.3821 24.442H22.0953V29.9346H77.3821V24.442Z" fill="#AAAAAA"/>
<path d="M20.5696 70.0307C20.2018 70.0307 19.849 69.886 19.5889 69.6285C19.3287 69.371 19.1826 69.0217 19.1826 68.6575V59.2789C19.1826 58.9147 19.3287 58.5655 19.5889 58.308C19.849 58.0504 20.2018 57.9058 20.5696 57.9058C20.9375 57.9058 21.2903 58.0504 21.5504 58.308C21.8105 58.5655 21.9567 58.9147 21.9567 59.2789V68.6575C21.9567 69.0217 21.8105 69.371 21.5504 69.6285C21.2903 69.886 20.9375 70.0307 20.5696 70.0307Z" fill="#606060"/>
<path d="M20.5696 47.8268C20.2018 47.8268 19.849 47.6821 19.5889 47.4246C19.3287 47.1671 19.1826 46.8179 19.1826 46.4537V24.4833C19.1826 24.1191 19.3287 23.7698 19.5889 23.5123C19.849 23.2548 20.2018 23.1101 20.5696 23.1101C20.9375 23.1101 21.2903 23.2548 21.5504 23.5123C21.8105 23.7698 21.9567 24.1191 21.9567 24.4833V46.4537C21.9567 46.8179 21.8105 47.1671 21.5504 47.4246C21.2903 47.6821 20.9375 47.8268 20.5696 47.8268Z" fill="#606060"/>
<path d="M78.7276 70.0307C78.3597 70.0307 78.0069 69.8861 77.7468 69.6286C77.4867 69.371 77.3406 69.0218 77.3406 68.6576V42.6501C77.3406 42.2859 77.4867 41.9367 77.7468 41.6792C78.0069 41.4216 78.3597 41.277 78.7276 41.277C79.0955 41.277 79.4483 41.4216 79.7084 41.6792C79.9685 41.9367 80.1146 42.2859 80.1146 42.6501V68.6576C80.1146 69.0218 79.9685 69.371 79.7084 69.6286C79.4483 69.8861 79.0955 70.0307 78.7276 70.0307Z" fill="#606060"/>
<path d="M78.7276 35.1389C78.3597 35.1389 78.0069 34.9942 77.7468 34.7367C77.4867 34.4792 77.3406 34.1299 77.3406 33.7658V24.4833C77.3406 24.1191 77.4867 23.7698 77.7468 23.5123C78.0069 23.2548 78.3597 23.1101 78.7276 23.1101C79.0955 23.1101 79.4483 23.2548 79.7084 23.5123C79.9685 23.7698 80.1146 24.1191 80.1146 24.4833V33.7658C80.1146 34.1299 79.9685 34.4792 79.7084 34.7367C79.4483 34.9942 79.0955 35.1389 78.7276 35.1389Z" fill="#606060"/>
<path d="M84.9276 24.4832H14.3696C13.7194 24.4832 13.0755 24.3565 12.4747 24.1101C11.874 23.8637 11.3281 23.5026 10.8683 23.0474C10.4085 22.5922 10.0437 22.0518 9.79489 21.4571C9.54605 20.8623 9.41797 20.2249 9.41797 19.5811C9.41797 18.9373 9.54605 18.2999 9.79489 17.7051C10.0437 17.1104 10.4085 16.57 10.8683 16.1148C11.3281 15.6596 11.874 15.2985 12.4747 15.0521C13.0755 14.8058 13.7194 14.679 14.3696 14.679H84.9276C86.2409 14.679 87.5003 15.1954 88.429 16.1148C89.3576 17.0341 89.8793 18.281 89.8793 19.5811C89.8793 20.8812 89.3576 22.1281 88.429 23.0474C87.5003 23.9668 86.2409 24.4832 84.9276 24.4832Z" fill="#EBF0F9"/>
<path d="M89.8654 18.3589H9.41797C9.41797 17.0588 9.93966 15.8119 10.8683 14.8926C11.7969 13.9733 13.0564 13.4568 14.3696 13.4568H84.9276C86.2384 13.4604 87.4944 13.9785 88.42 14.8974C89.3456 15.8164 89.8654 17.0612 89.8654 18.3589Z" fill="#C2D0E1"/>
<path d="M84.9275 25.8564H14.3696C12.6885 25.8564 11.0762 25.1952 9.88745 24.0184C8.69871 22.8415 8.03088 21.2454 8.03088 19.5811C8.03088 17.9168 8.69871 16.3206 9.88745 15.1438C11.0762 13.9669 12.6885 13.3058 14.3696 13.3058H24.0788C24.4466 13.3058 24.7994 13.4505 25.0595 13.708C25.3197 13.9655 25.4658 14.3148 25.4658 14.6789C25.4658 15.0431 25.3197 15.3924 25.0595 15.6499C24.7994 15.9074 24.4466 16.0521 24.0788 16.0521H14.3696C13.4242 16.0521 12.5175 16.4239 11.849 17.0857C11.1805 17.7475 10.8049 18.6451 10.8049 19.5811C10.8049 20.517 11.1805 21.4146 11.849 22.0765C12.5175 22.7383 13.4242 23.1101 14.3696 23.1101H84.9275C85.8729 23.1101 86.7796 22.7383 87.4481 22.0765C88.1166 21.4146 88.4922 20.517 88.4922 19.5811C88.4922 18.6451 88.1166 17.7475 87.4481 17.0857C86.7796 16.4239 85.8729 16.0521 84.9275 16.0521H30.8336C30.4657 16.0521 30.1129 15.9074 29.8528 15.6499C29.5927 15.3924 29.4465 15.0431 29.4465 14.6789C29.4465 14.3148 29.5927 13.9655 29.8528 13.708C30.1129 13.4505 30.4657 13.3058 30.8336 13.3058H84.9275C86.6087 13.3058 88.2209 13.9669 89.4097 15.1438C90.5984 16.3206 91.2662 17.9168 91.2662 19.5811C91.2662 21.2454 90.5984 22.8415 89.4097 24.0184C88.2209 25.1952 86.6087 25.8564 84.9275 25.8564Z" fill="#606060"/>
<path d="M84.9276 78.3932H14.3696C13.0564 78.3932 11.7969 77.8767 10.8683 76.9573C9.93966 76.038 9.41797 74.7911 9.41797 73.491C9.41797 72.1909 9.93966 70.944 10.8683 70.0247C11.7969 69.1053 13.0564 68.5889 14.3696 68.5889H84.9276C86.2409 68.5889 87.5003 69.1053 88.429 70.0247C89.3576 70.944 89.8793 72.1909 89.8793 73.491C89.8793 74.7911 89.3576 76.038 88.429 76.9573C87.5003 77.8767 86.2409 78.3932 84.9276 78.3932Z" fill="#EBF0F9"/>
<path d="M89.8654 73.491H9.41797C9.43619 72.2028 9.96592 70.9735 10.8926 70.0689C11.8192 69.1644 13.0683 68.6573 14.3696 68.6575H84.9276C86.2265 68.6609 87.4721 69.1696 88.3957 70.0737C89.3194 70.9779 89.8472 72.2051 89.8654 73.491Z" fill="#C2D0E1"/>
<path d="M84.9275 79.7664H78.7414C78.3735 79.7664 78.0207 79.6218 77.7606 79.3642C77.5005 79.1067 77.3544 78.7575 77.3544 78.3933C77.3544 78.0291 77.5005 77.6798 77.7606 77.4223C78.0207 77.1648 78.3735 77.0201 78.7414 77.0201H84.9275C85.8729 77.0201 86.7796 76.6483 87.4481 75.9865C88.1166 75.3247 88.4922 74.4271 88.4922 73.4911C88.4922 72.5552 88.1166 71.6576 87.4481 70.9957C86.7796 70.3339 85.8729 69.9621 84.9275 69.9621H14.3696C13.4242 69.9621 12.5175 70.3339 11.849 70.9957C11.1805 71.6576 10.8049 72.5552 10.8049 73.4911C10.8049 74.4271 11.1805 75.3247 11.849 75.9865C12.5175 76.6483 13.4242 77.0201 14.3696 77.0201H69.1709C69.5388 77.0201 69.8916 77.1648 70.1517 77.4223C70.4118 77.6798 70.558 78.0291 70.558 78.3933C70.558 78.7575 70.4118 79.1067 70.1517 79.3642C69.8916 79.6218 69.5388 79.7664 69.1709 79.7664H14.3696C12.6885 79.7664 11.0762 79.1053 9.88745 77.9284C8.69871 76.7516 8.03088 75.1554 8.03088 73.4911C8.03088 71.8268 8.69871 70.2307 9.88745 69.0538C11.0762 67.877 12.6885 67.2158 14.3696 67.2158H84.9275C86.6087 67.2158 88.2209 67.877 89.4097 69.0538C90.5984 70.2307 91.2662 71.8268 91.2662 73.4911C91.2662 75.1554 90.5984 76.7516 89.4097 77.9284C88.2209 79.1053 86.6087 79.7664 84.9275 79.7664Z" fill="#606060"/>
<path d="M66.5773 39.5467H31.9017C31.5338 39.5467 31.181 39.402 30.9209 39.1445C30.6608 38.887 30.5146 38.5377 30.5146 38.1736C30.5146 37.8094 30.6608 37.4601 30.9209 37.2026C31.181 36.9451 31.5338 36.8004 31.9017 36.8004H66.5773C66.9451 36.8004 67.2979 36.9451 67.5581 37.2026C67.8182 37.4601 67.9643 37.8094 67.9643 38.1736C67.9643 38.5377 67.8182 38.887 67.5581 39.1445C67.2979 39.402 66.9451 39.5467 66.5773 39.5467Z" fill="#606060"/>
<path d="M44.3849 48.4721H31.9017C31.5338 48.4721 31.181 48.3275 30.9209 48.0699C30.6608 47.8124 30.5146 47.4632 30.5146 47.099C30.5146 46.7348 30.6608 46.3855 30.9209 46.128C31.181 45.8705 31.5338 45.7258 31.9017 45.7258H44.3849C44.7528 45.7258 45.1055 45.8705 45.3657 46.128C45.6258 46.3855 45.7719 46.7348 45.7719 47.099C45.7719 47.4632 45.6258 47.8124 45.3657 48.0699C45.1055 48.3275 44.7528 48.4721 44.3849 48.4721Z" fill="#606060"/>
<path d="M55.4811 57.3977H31.9017C31.5338 57.3977 31.181 57.253 30.9209 56.9955C30.6608 56.738 30.5146 56.3887 30.5146 56.0245C30.5146 55.6603 30.6608 55.3111 30.9209 55.0536C31.181 54.796 31.5338 54.6514 31.9017 54.6514H55.4811C55.8489 54.6514 56.2017 54.796 56.4619 55.0536C56.722 55.3111 56.8681 55.6603 56.8681 56.0245C56.8681 56.3887 56.722 56.738 56.4619 56.9955C56.2017 57.253 55.8489 57.3977 55.4811 57.3977Z" fill="#606060"/>
</g>
<defs>
<clipPath id="clip0">
<rect width="93" height="103" rx="20" fill="white"/>
</clipPath>
</defs>
</svg>
