<svg width="69" height="105" viewBox="0 0 69 105" fill="none" xmlns="http://www.w3.org/2000/svg">
<g clip-path="url(#clip0)">
<g opacity="0.12">
<path opacity="0.12" d="M1.90065 35.781C1.94125 33.2346 2.52916 30.727 3.62414 28.4299C4.71912 26.1328 6.29532 24.1004 8.24488 22.4717C10.2372 20.8908 12.6548 19.9446 15.1869 19.7545C17.7189 19.5645 20.2497 20.1394 22.4538 21.4054C23.7646 22.2348 24.8526 23.3274 26.1372 24.1436C30.2268 26.7765 35.5486 26.1841 40.1495 24.7097C44.7504 23.2353 49.1153 20.9315 53.8735 20.1416C58.6316 19.3517 64.2287 20.5365 66.8503 24.6044C69.4719 28.6722 68.03 34.7015 64.2287 37.861C61.0435 40.4939 56.364 41.8104 54.6337 45.5754C53.9943 47.254 53.7 49.0453 53.7686 50.8412C53.6375 55.9622 53.6375 61.4913 56.6392 65.6118C58.145 67.4096 59.8318 69.0463 61.6727 70.4958C65.605 74.0239 68.8558 78.6051 68.9869 84.1079C69.0402 85.8624 68.6904 87.6057 67.9645 89.2025C65.1987 95.1792 58.8938 95.8638 53.3098 95.4425C49.0236 95.1266 44.6324 94.3104 40.4903 95.4425C37.4755 96.2455 34.8015 98.0754 31.9177 99.1944C27.6182 100.95 22.8969 101.385 18.3511 100.445C15.5687 99.9542 12.9874 98.6649 10.9189 96.7326C6.72436 92.52 6.7899 85.7534 7.86475 79.9084C8.93959 74.0634 10.4863 67.9682 8.66433 62.3338C8.20433 60.9559 7.59787 59.6319 6.85544 58.3845C2.95043 51.8197 1.19026 44.1916 1.822 36.5709L1.90065 35.781Z" fill="#AAAAAA"/>
</g>
<path d="M54.1225 64.9667C54.0116 64.9901 53.8965 64.9842 53.7885 64.9496C53.6805 64.915 53.5834 64.8528 53.5064 64.7692L51.6451 62.7946C51.5252 62.6671 51.4606 62.497 51.4655 62.3218C51.4704 62.1465 51.5444 61.9803 51.6713 61.8599C51.7982 61.7394 51.9675 61.6745 52.1421 61.6795C52.3166 61.6844 52.4821 61.7588 52.602 61.8862L54.4633 63.8609C54.5424 63.9459 54.5976 64.0505 54.6233 64.164C54.6491 64.2775 54.6444 64.3958 54.6097 64.5069C54.5751 64.6179 54.5117 64.7178 54.4261 64.7963C54.3406 64.8747 54.2358 64.929 54.1225 64.9535V64.9667Z" fill="#C2D0E1"/>
<path d="M52.2088 64.9141C52.0693 64.9438 51.9241 64.9271 51.7949 64.8665C51.6658 64.8059 51.5599 64.7047 51.4932 64.5782C51.4265 64.4517 51.4027 64.3068 51.4254 64.1655C51.4481 64.0242 51.516 63.8941 51.6189 63.7951L53.5851 61.8731C53.6479 61.8134 53.7218 61.7668 53.8026 61.7358C53.8834 61.7049 53.9694 61.6902 54.0558 61.6926C54.1423 61.6951 54.2274 61.7146 54.3063 61.7501C54.3852 61.7856 54.4564 61.8363 54.5157 61.8994C54.5751 61.9625 54.6216 62.0367 54.6524 62.1178C54.6832 62.199 54.6978 62.2854 54.6954 62.3722C54.6929 62.459 54.6735 62.5444 54.6382 62.6237C54.6029 62.7029 54.5524 62.7744 54.4895 62.8341L52.5233 64.7034C52.4419 64.8037 52.3323 64.8771 52.2088 64.9141Z" fill="#C2D0E1"/>
<path d="M47.5816 50.7754C47.2345 50.848 46.8737 50.8157 46.5447 50.6826C46.2158 50.5496 45.9334 50.3217 45.7332 50.0277C45.5331 49.7337 45.4241 49.3867 45.42 49.0306C45.4159 48.6744 45.5169 48.3251 45.7102 48.0265C45.9035 47.7279 46.1806 47.4935 46.5063 47.3528C46.8321 47.2121 47.1921 47.1715 47.5409 47.236C47.8896 47.3005 48.2116 47.4673 48.4661 47.7153C48.7206 47.9633 48.8963 48.2814 48.9711 48.6296C49.0683 49.099 48.9768 49.588 48.7166 49.99C48.4563 50.3919 48.0483 50.6743 47.5816 50.7754ZM47.0311 48.1425C46.8745 48.177 46.7316 48.2572 46.6203 48.3731C46.509 48.489 46.4343 48.6354 46.4057 48.7938C46.377 48.9522 46.3956 49.1156 46.4592 49.2634C46.5228 49.4113 46.6285 49.5369 46.763 49.6245C46.8975 49.7121 47.0548 49.7578 47.2151 49.7559C47.3754 49.7539 47.5316 49.7044 47.6639 49.6135C47.7963 49.5226 47.8989 49.3945 47.9589 49.2452C48.0189 49.0959 48.0336 48.9321 48.0011 48.7744C47.9428 48.5723 47.8101 48.4 47.63 48.2924C47.4499 48.1849 47.2358 48.1501 47.0311 48.1952V48.1425Z" fill="#C2D0E1"/>
<path d="M59.8087 71.3805C60.3408 71.266 60.6797 70.74 60.5657 70.2056C60.4517 69.6712 59.9279 69.3309 59.3958 69.4454C58.8637 69.5599 58.5248 70.0859 58.6388 70.6203C58.7528 71.1547 59.2766 71.4951 59.8087 71.3805Z" fill="#C2D0E1"/>
<path d="M58.2122 18.8384C58.3162 18.7941 58.4071 18.7236 58.476 18.6336C58.5449 18.5437 58.5895 18.4374 58.6054 18.325L58.9725 15.6921C58.9968 15.5175 58.9511 15.3404 58.8454 15.1997C58.7397 15.0589 58.5826 14.9662 58.4088 14.9417C58.3227 14.9296 58.2351 14.9347 58.151 14.9566C58.0669 14.9785 57.9879 15.0168 57.9185 15.0694C57.7784 15.1755 57.686 15.3332 57.6617 15.5078L57.2946 18.1407C57.2785 18.256 57.2931 18.3736 57.337 18.4813C57.3809 18.5891 57.4525 18.6833 57.5444 18.7542C57.6364 18.8252 57.7454 18.8703 57.8604 18.8851C57.9754 18.8999 58.0923 18.8838 58.1991 18.8384H58.2122Z" fill="#C2D0E1"/>
<path d="M59.7327 17.6799C59.9065 17.6572 60.0643 17.5661 60.1712 17.4266C60.2781 17.2871 60.3255 17.1107 60.3029 16.9361C60.2803 16.7615 60.1896 16.6031 60.0507 16.4957C59.9118 16.3883 59.7361 16.3407 59.5623 16.3634L56.9407 15.9948C56.8547 15.9827 56.7671 15.9878 56.6829 16.0097C56.5988 16.0316 56.5198 16.0699 56.4504 16.1225C56.3811 16.175 56.3227 16.2408 56.2786 16.316C56.2345 16.3912 56.2056 16.4745 56.1936 16.5609C56.1815 16.6473 56.1866 16.7353 56.2084 16.8198C56.2302 16.9043 56.2683 16.9836 56.3207 17.0533C56.373 17.123 56.4385 17.1816 56.5134 17.2259C56.5883 17.2702 56.6712 17.2992 56.7572 17.3113L59.3788 17.6799C59.4945 17.7132 59.6171 17.7132 59.7327 17.6799Z" fill="#C2D0E1"/>
<path d="M52.9428 2.52753C52.8021 2.20061 52.7609 1.83916 52.8244 1.48876C52.8879 1.13835 53.0533 0.814685 53.2998 0.558564C53.5462 0.302442 53.8626 0.125335 54.2092 0.0495751C54.5557 -0.0261853 54.9168 0.00279276 55.2469 0.132855C55.5771 0.262918 55.8615 0.488242 56.0643 0.780416C56.2671 1.07259 56.3792 1.41853 56.3865 1.77462C56.3939 2.13071 56.296 2.481 56.1054 2.78133C55.9148 3.08166 55.6399 3.31858 55.3153 3.46221C54.8771 3.65237 54.3818 3.66083 53.9373 3.48574C53.4929 3.31066 53.1354 2.96623 52.9428 2.52753ZM53.8472 2.1326C53.9114 2.28437 54.0191 2.41351 54.1567 2.5035C54.2942 2.5935 54.4554 2.64028 54.6195 2.63786C54.7837 2.63545 54.9434 2.58395 55.0782 2.48995C55.2131 2.39594 55.317 2.2637 55.3767 2.1101C55.4364 1.9565 55.4491 1.78853 55.4133 1.62762C55.3775 1.46672 55.2947 1.32019 55.1756 1.20674C55.0565 1.0933 54.9064 1.0181 54.7445 0.99073C54.5826 0.963365 54.4162 0.985084 54.2667 1.05311C54.0703 1.14245 53.9165 1.30537 53.8381 1.50708C53.7597 1.70879 53.763 1.93328 53.8472 2.1326Z" fill="#C2D0E1"/>
<path d="M57.334 27.165C57.8321 26.9479 58.0606 26.3664 57.8445 25.8662C57.6283 25.366 57.0493 25.1364 56.5512 25.3535C56.0532 25.5706 55.8246 26.1521 56.0408 26.6523C56.2569 27.1525 56.8359 27.382 57.334 27.165Z" fill="#C2D0E1"/>
<path d="M14.0254 73.471C13.914 73.4597 13.8072 73.4198 13.7154 73.3553C13.6236 73.2908 13.5499 73.2037 13.5011 73.1024L12.3214 70.6669C12.2835 70.5891 12.2613 70.5046 12.256 70.4182C12.2506 70.3318 12.2623 70.2451 12.2903 70.1632C12.3183 70.0813 12.362 70.0057 12.4191 69.9408C12.4762 69.8759 12.5454 69.8229 12.6229 69.7849C12.7793 69.7081 12.9598 69.6968 13.1245 69.7536C13.206 69.7817 13.2812 69.8257 13.3459 69.883C13.4105 69.9403 13.4633 70.0099 13.5011 70.0877L14.6808 72.5231C14.7332 72.6287 14.7563 72.7465 14.7477 72.8641C14.7392 72.9818 14.6994 73.0949 14.6324 73.1918C14.5654 73.2887 14.4737 73.3657 14.367 73.4148C14.2602 73.4639 14.1422 73.4833 14.0254 73.471Z" fill="#C2D0E1"/>
<path d="M12.2166 72.8522C12.0732 72.8395 11.938 72.7798 11.8318 72.6822C11.7256 72.5847 11.6543 72.4547 11.629 72.3124C11.6036 72.1702 11.6256 72.0235 11.6915 71.895C11.7574 71.7665 11.8636 71.6634 11.9937 71.6015L14.4187 70.4167C14.4961 70.3787 14.5803 70.3564 14.6664 70.351C14.7524 70.3456 14.8387 70.3573 14.9202 70.3855C15.0018 70.4136 15.077 70.4575 15.1417 70.5149C15.2063 70.5722 15.259 70.6417 15.2969 70.7195C15.3348 70.7973 15.357 70.8818 15.3624 70.9683C15.3677 71.0547 15.3561 71.1413 15.3281 71.2232C15.3001 71.3051 15.2563 71.3807 15.1992 71.4456C15.1421 71.5105 15.0729 71.5635 14.9954 71.6015L12.5705 72.7864C12.4612 72.8417 12.3384 72.8646 12.2166 72.8522Z" fill="#C2D0E1"/>
<path d="M15.7295 60.9516C15.3767 60.9164 15.0423 60.7771 14.7682 60.5513C14.4941 60.3255 14.2928 60.0233 14.1894 59.6827C14.0861 59.3422 14.0854 58.9785 14.1874 58.6376C14.2895 58.2967 14.4898 57.9937 14.763 57.7669C15.0362 57.54 15.3702 57.3995 15.7228 57.3629C16.0754 57.3264 16.4309 57.3954 16.7445 57.5614C17.0581 57.7274 17.3157 57.9829 17.485 58.2957C17.6543 58.6085 17.7276 58.9646 17.6957 59.3192C17.6492 59.797 17.4163 60.2369 17.0479 60.5428C16.6795 60.8486 16.2055 60.9956 15.7295 60.9516ZM15.9785 58.3187C15.8154 58.301 15.6506 58.3325 15.5054 58.4092C15.3601 58.486 15.2409 58.6044 15.163 58.7495C15.0851 58.8945 15.052 59.0596 15.0679 59.2237C15.0838 59.3877 15.148 59.5433 15.2523 59.6705C15.3566 59.7977 15.4964 59.8909 15.6536 59.938C15.8109 59.9851 15.9786 59.9841 16.1353 59.9351C16.292 59.8861 16.4306 59.7914 16.5334 59.6629C16.6362 59.5344 16.6986 59.3781 16.7126 59.2139C16.727 58.996 16.6553 58.7811 16.513 58.616C16.3706 58.4508 16.1692 58.3487 15.9523 58.3319L15.9785 58.3187Z" fill="#C2D0E1"/>
<path d="M12.7775 84.9769C12.8287 84.4341 12.432 83.9523 11.8915 83.9009C11.351 83.8495 10.8713 84.2479 10.8201 84.7907C10.7689 85.3336 11.1656 85.8154 11.7061 85.8668C12.2467 85.9182 12.7263 85.5198 12.7775 84.9769Z" fill="#C2D0E1"/>
<path d="M7.11759 93.4678C7.19192 93.3546 7.29539 93.2638 7.41699 93.205C7.5386 93.1461 7.6738 93.1215 7.80824 93.1336C7.94268 93.1458 8.07133 93.1943 8.18053 93.274C8.28972 93.3537 8.37537 93.4616 8.42839 93.5863L8.76919 94.3367L9.11 95.087C9.16296 95.2063 9.18401 95.3374 9.17105 95.4674C9.15809 95.5974 9.11158 95.7217 9.03611 95.8281C8.96065 95.9344 8.85884 96.0192 8.74076 96.0739C8.62268 96.1287 8.49241 96.1515 8.36285 96.1402L7.52394 96.1007L6.69814 96.0217C6.55802 96.016 6.42234 95.9708 6.3066 95.8912C6.19087 95.8117 6.09976 95.7011 6.04369 95.572C5.98763 95.4429 5.96887 95.3005 5.98956 95.1612C6.01026 95.0219 6.06957 94.8913 6.16072 94.7842L6.6326 94.1129L7.11759 93.4678Z" fill="#C2D0E1"/>
<path d="M21.447 28.345L9.25427 36.1974L45.9344 93.6454L58.1271 85.793L21.447 28.345Z" fill="white"/>
<path d="M8.88465 15.6867L3.04759 19.4458C1.29252 20.5761 0.782098 22.9213 1.90754 24.684L4.99959 29.5267C6.12503 31.2894 8.46014 31.802 10.2152 30.6717L16.0523 26.9125C17.8073 25.7822 18.3178 23.437 17.1923 21.6744L14.1003 16.8316C12.9748 15.069 10.6397 14.5564 8.88465 15.6867Z" fill="#E9D038"/>
<path d="M11.299 15.1127C11.1255 20.6981 9.61 26.1585 6.88165 31.0286C6.49906 30.897 6.14367 30.6962 5.83301 30.4362C5.50166 30.1861 5.21754 29.8785 4.99411 29.5278L1.90064 24.6833C1.35848 23.8326 1.17408 22.8008 1.38782 21.8138C1.60156 20.8269 2.19603 19.9652 3.04103 19.4175L8.88716 15.6525C9.60524 15.1977 10.4546 14.9983 11.299 15.0864V15.1127Z" fill="#D4BD28"/>
<path d="M58.5792 85.9377L58.8807 92.599C58.2981 92.4826 57.7007 92.4604 57.1111 92.5332C54.7124 92.8228 52.7593 94.7053 50.3868 95.1661C49.9548 95.2474 49.5145 95.274 49.076 95.245L46.3233 93.8233L58.5792 85.9377Z" fill="#C2D0E1"/>
<path d="M8.1924 32.5821C7.82225 32.5818 7.45317 32.542 7.09134 32.4636C5.79299 32.1812 4.6579 31.3959 3.93234 30.2783L0.799549 25.3943C0.0749534 24.2533 -0.170477 22.8706 0.116893 21.5484C0.404262 20.2263 1.20106 19.0721 2.33317 18.3381L8.16619 14.5731C9.30131 13.8419 10.6791 13.5933 11.9967 13.8822C13.3142 14.171 14.4636 14.9736 15.192 16.1133L18.351 20.9579C19.0756 22.0989 19.3211 23.4815 19.0337 24.8037C18.7463 26.1259 17.9495 27.2801 16.8174 28.014L10.9188 31.7791C10.1057 32.3042 9.15915 32.5829 8.1924 32.5821ZM10.9188 16.4029C10.4534 16.4069 9.99879 16.5439 9.60806 16.7979L3.74883 20.5498C3.19998 20.906 2.8135 21.4656 2.67356 22.1066C2.53362 22.7477 2.65155 23.4184 3.00168 23.9725L6.09514 28.8171C6.44983 29.3683 7.00701 29.7564 7.64534 29.897C8.28366 30.0375 8.95142 29.9191 9.5032 29.5674L15.3362 25.8024C15.6093 25.6272 15.8454 25.3996 16.0308 25.1326C16.2162 24.8657 16.3474 24.5646 16.4168 24.2467C16.4862 23.9287 16.4924 23.6002 16.4352 23.2798C16.378 22.9594 16.2584 22.6535 16.0834 22.3796L13.003 17.5351C12.7783 17.1857 12.4696 16.8988 12.1053 16.7009C11.741 16.5031 11.333 16.4006 10.9188 16.4029Z" fill="#606060"/>
<path d="M45.9956 95.6137L6.13446 33.1745L20.5532 23.9594L47.4899 66.1252C47.5939 66.2703 47.6675 66.435 47.706 66.6095C47.7446 66.784 47.7473 66.9646 47.7141 67.1402C47.6809 67.3158 47.6125 67.4828 47.513 67.631C47.4134 67.7792 47.2849 67.9054 47.1352 68.0021C46.9855 68.0987 46.8177 68.1638 46.6422 68.1932C46.4666 68.2226 46.2869 68.2158 46.1141 68.1733C45.9412 68.1307 45.7788 68.0532 45.6368 67.9455C45.4947 67.8378 45.376 67.7023 45.2878 67.547L19.7405 27.5401L9.75224 33.9644L46.7821 91.9671L56.7703 85.5692L48.6434 72.8391C48.4771 72.5463 48.429 72.2006 48.5089 71.8732C48.5889 71.5458 48.7908 71.2617 49.0731 71.0795C49.3555 70.8972 49.6967 70.8306 50.0264 70.8935C50.3562 70.9563 50.6493 71.1438 50.8455 71.4174L60.3881 86.3591L45.9956 95.6137Z" fill="#606060"/>
<path d="M18.376 22.5302L5.27844 30.9652C4.68733 31.3459 4.51541 32.1358 4.89447 32.7295L7.27896 36.464C7.65801 37.0577 8.44449 37.2304 9.03561 36.8497L22.1331 28.4146C22.7243 28.0339 22.8962 27.2441 22.5171 26.6504L20.1326 22.9158C19.7536 22.3222 18.9671 22.1495 18.376 22.5302Z" fill="white"/>
<path d="M22.8471 25.46L23.5024 26.4868C23.666 26.7496 23.7206 27.0663 23.6544 27.369C23.5883 27.6717 23.4067 27.9363 23.1485 28.1061L9.87023 36.6498C9.60859 36.8141 9.29328 36.8689 8.99189 36.8025C8.6905 36.736 8.42703 36.5536 8.25796 36.2944L6.09515 32.9111C7.2932 33.0088 8.49722 32.8193 9.60807 32.3582C11.3433 31.7387 12.91 30.7198 14.1827 29.383C14.6677 28.8433 15.0872 28.2509 15.5722 27.7111C17.3679 25.6838 20.3828 24.4858 22.8471 25.46Z" fill="#C2D0E1"/>
<path d="M58.068 101.367C57.6127 101.378 57.1619 101.274 56.7572 101.064L46.035 95.4953C45.7256 95.3347 45.4924 95.0572 45.3866 94.7239C45.2809 94.3906 45.3114 94.0288 45.4713 93.7181C45.6312 93.4073 45.9075 93.1731 46.2394 93.067C46.5712 92.9608 46.9315 92.9914 47.2409 93.152L58.0287 98.7338L59.4706 98.5889H58.1598L57.5961 86.4908C57.5961 86.1416 57.7342 85.8068 57.9801 85.5599C58.2259 85.313 58.5593 85.1743 58.9069 85.1743C59.2546 85.1743 59.588 85.313 59.8338 85.5599C60.0796 85.8068 60.2177 86.1416 60.2177 86.4908L60.7813 98.5889C60.7883 98.9512 60.7233 99.3112 60.5901 99.648C60.4568 99.9847 60.2581 100.291 60.0054 100.55C59.7528 100.809 59.4513 101.014 59.1186 101.154C58.786 101.295 58.4288 101.367 58.068 101.367Z" fill="#606060"/>
<path d="M29.7418 60.5567C29.6321 60.5565 29.5243 60.5287 29.4281 60.4758C29.3319 60.4229 29.2505 60.3466 29.1913 60.2539L12.8982 34.7017C12.8461 34.6291 12.8094 34.5467 12.7901 34.4595C12.7708 34.3722 12.7694 34.282 12.786 34.1942C12.8026 34.1064 12.8369 34.0229 12.8866 33.9488C12.9364 33.8747 13.0007 33.8116 13.0755 33.7632C13.1504 33.7149 13.2342 33.6824 13.322 33.6677C13.4098 33.653 13.4996 33.6564 13.5861 33.6776C13.6725 33.6989 13.7537 33.7377 13.8247 33.7915C13.8958 33.8453 13.9551 33.9131 13.9992 33.9908L30.2923 59.5036C30.3558 59.6029 30.3915 59.7176 30.3957 59.8356C30.3999 59.9536 30.3724 60.0705 30.3161 60.1742C30.2598 60.2778 30.1768 60.3644 30.0757 60.4247C29.9747 60.4851 29.8594 60.517 29.7418 60.5172V60.5567Z" fill="#606060"/>
<path d="M49.6265 91.6511C49.5168 91.6509 49.409 91.6231 49.3128 91.5702C49.2166 91.5173 49.1352 91.441 49.076 91.3483L32.7697 65.8224C32.7177 65.7499 32.681 65.6675 32.6617 65.5802C32.6424 65.493 32.641 65.4027 32.6576 65.3149C32.6742 65.2271 32.7084 65.1436 32.7582 65.0695C32.808 64.9954 32.8722 64.9323 32.9471 64.884C33.022 64.8356 33.1058 64.8031 33.1936 64.7884C33.2814 64.7737 33.3712 64.7771 33.4576 64.7984C33.5441 64.8197 33.6253 64.8584 33.6963 64.9122C33.7673 64.9661 33.8267 65.0339 33.8708 65.1115L50.177 90.6375C50.2405 90.7368 50.2762 90.8515 50.2804 90.9695C50.2846 91.0875 50.2571 91.2044 50.2008 91.3081C50.1445 91.4117 50.0615 91.4983 49.9604 91.5586C49.8594 91.619 49.7441 91.6509 49.6265 91.6511Z" fill="#606060"/>
<path d="M54.6993 88.3732C54.5896 88.3731 54.4817 88.3452 54.3856 88.2924C54.2894 88.2395 54.208 88.1632 54.1487 88.0705L25.7963 43.6666C25.7443 43.5941 25.7076 43.5117 25.6883 43.4245C25.669 43.3372 25.6676 43.2469 25.6842 43.1591C25.7008 43.0713 25.735 42.9878 25.7848 42.9137C25.8346 42.8397 25.8989 42.7765 25.9737 42.7282C26.0486 42.6799 26.1324 42.6474 26.2202 42.6326C26.308 42.6179 26.3978 42.6213 26.4843 42.6426C26.5707 42.6639 26.6519 42.7026 26.7229 42.7565C26.7939 42.8103 26.8533 42.8781 26.8974 42.9557L55.2498 87.3596C55.3133 87.459 55.349 87.5736 55.3532 87.6916C55.3573 87.8096 55.3298 87.9266 55.2736 88.0302C55.2173 88.1339 55.1342 88.2204 55.0332 88.2808C54.9322 88.3411 54.8168 88.373 54.6993 88.3732Z" fill="#606060"/>
<path d="M23.0961 38.8747C22.9864 38.8745 22.8786 38.8467 22.7824 38.7938C22.6862 38.7409 22.6048 38.6646 22.5455 38.5719L17.984 31.4236C17.9008 31.2772 17.8768 31.1043 17.9168 30.9406C17.9567 30.7769 18.0577 30.6349 18.1989 30.5438C18.34 30.4526 18.5106 30.4193 18.6755 30.4508C18.8404 30.4822 18.987 30.5759 19.0851 30.7127L23.5942 37.861C23.6577 37.9604 23.6934 38.0751 23.6975 38.1931C23.7017 38.3111 23.6742 38.428 23.6179 38.5317C23.5616 38.6353 23.4786 38.7218 23.3776 38.7822C23.2765 38.8425 23.1612 38.8745 23.0436 38.8747H23.0961Z" fill="#606060"/>
<path d="M43.0332 75.7221C42.9236 75.7219 42.8157 75.6941 42.7195 75.6412C42.6233 75.5883 42.5419 75.512 42.4827 75.4193L26.2158 49.9065C26.1638 49.834 26.127 49.7516 26.1077 49.6643C26.0884 49.5771 26.0871 49.4868 26.1037 49.399C26.1203 49.3112 26.1545 49.2277 26.2043 49.1536C26.254 49.0795 26.3183 49.0164 26.3931 48.9681C26.468 48.9197 26.5519 48.8872 26.6396 48.8725C26.7274 48.8578 26.8173 48.8612 26.9037 48.8825C26.9901 48.9038 27.0713 48.9425 27.1423 48.9963C27.2134 49.0502 27.2728 49.118 27.3168 49.1956L43.5838 74.7084C43.6472 74.8078 43.6829 74.9225 43.6871 75.0404C43.6913 75.1584 43.6638 75.2754 43.6075 75.379C43.5512 75.4827 43.4682 75.5692 43.3672 75.6296C43.2661 75.6899 43.1508 75.7219 43.0332 75.7221Z" fill="#606060"/>
<path d="M24.4724 46.6285C24.3628 46.6283 24.2549 46.6005 24.1587 46.5476C24.0625 46.4947 23.9811 46.4184 23.9219 46.3257L15.7295 33.5693C15.6774 33.4968 15.6407 33.4144 15.6214 33.3272C15.6021 33.2399 15.6007 33.1496 15.6173 33.0618C15.6339 32.974 15.6682 32.8905 15.7179 32.8165C15.7677 32.7424 15.832 32.6792 15.9068 32.6309C15.9817 32.5826 16.0655 32.5501 16.1533 32.5354C16.2411 32.5206 16.3309 32.524 16.4174 32.5453C16.5038 32.5666 16.585 32.6053 16.656 32.6592C16.7271 32.713 16.7864 32.7808 16.8305 32.8584L24.9705 45.6148C25.034 45.7142 25.0697 45.8289 25.0739 45.9469C25.0781 46.0649 25.0506 46.1818 24.9943 46.2855C24.938 46.3891 24.855 46.4757 24.7539 46.536C24.6529 46.5964 24.5375 46.6283 24.42 46.6285H24.4724Z" fill="#606060"/>
<path d="M52.4316 90.519C52.322 90.5188 52.2141 90.491 52.1179 90.4381C52.0217 90.3852 51.9403 90.3089 51.8811 90.2162L43.7411 77.4598C43.6579 77.3134 43.6339 77.1406 43.6738 76.9769C43.7138 76.8132 43.8148 76.6711 43.956 76.58C44.0971 76.4889 44.2677 76.4556 44.4326 76.487C44.5975 76.5184 44.7441 76.6122 44.8421 76.7489L53.0346 89.5185C53.0981 89.6179 53.1338 89.7326 53.1379 89.8506C53.1421 89.9685 53.1146 90.0855 53.0583 90.1892C53.002 90.2928 52.919 90.3793 52.818 90.4397C52.717 90.5 52.6016 90.532 52.4841 90.5322L52.4316 90.519Z" fill="#606060"/>
<path d="M8.34975 38.3613C8.16241 38.3817 7.97344 38.3817 7.78611 38.3613C7.1179 38.2116 6.53454 37.8053 6.16073 37.2292L3.7882 33.451C3.42604 32.8674 3.30557 32.1647 3.45254 31.4931C3.59951 30.8215 4.00225 30.2343 4.57467 29.8571L17.6826 21.4186C18.2636 21.0549 18.9633 20.9339 19.632 21.0815C20.3007 21.2291 20.8854 21.6336 21.261 22.2085L23.5942 25.9341C23.9564 26.5176 24.0769 27.2203 23.9299 27.8919C23.7829 28.5635 23.3802 29.1507 22.8078 29.528L9.69986 37.9664C9.29403 38.2191 8.8272 38.3556 8.34975 38.3613ZM19.0327 23.6303L5.92478 32.0687L8.31042 35.7416L21.3266 27.3163L19.0327 23.6303Z" fill="#606060"/>
<path d="M54.5813 98.9837L58.5137 96.3508V99.9316L54.5813 98.9837Z" fill="#606060"/>
<path d="M45.9313 26.595L31.7812 23.4886L17.2707 90.1592L31.4209 93.2656L45.9313 26.595Z" fill="white"/>
<path d="M45.9775 8.72019L39.2033 7.23308C37.1665 6.78594 35.1544 8.08176 34.7092 10.1274L33.486 15.7476C33.0408 17.7932 34.331 19.814 36.3678 20.2611L43.142 21.7482C45.1788 22.1954 47.1909 20.8995 47.6361 18.8539L48.8593 13.2337C49.3045 11.1881 48.0143 9.16733 45.9775 8.72019Z" fill="#E9D038"/>
<path d="M48.0798 10.0313C44.0259 13.8591 39.1106 16.6458 33.7528 18.1538C33.5744 17.7908 33.4634 17.3983 33.4251 16.9953C33.3517 16.5861 33.3517 16.1671 33.4251 15.7579L34.6442 10.1366C34.7526 9.64606 34.9565 9.18184 35.244 8.77057C35.5315 8.35931 35.897 8.0091 36.3196 7.74002C36.7422 7.47095 37.2135 7.28831 37.7065 7.20258C38.1995 7.11685 38.7046 7.12971 39.1926 7.24043L45.9825 8.72802C46.8086 8.91883 47.547 9.38236 48.0798 10.0445V10.0313Z" fill="#D4BD28"/>
<path d="M31.6425 93.6916L27.1727 98.6152C26.8474 98.1154 26.4447 97.671 25.9799 97.2987C24.0792 95.798 21.379 95.7453 19.4259 94.3762C19.0787 94.1346 18.7618 93.8517 18.4822 93.5337L17.5384 90.5717L31.6425 93.6916Z" fill="#C2D0E1"/>
<path d="M43.9377 23.1564C43.5718 23.1569 43.207 23.1172 42.8497 23.0379L36.0729 21.5503C35.4158 21.4127 34.7924 21.1458 34.2384 20.765C33.6845 20.3843 33.2112 19.8972 32.8456 19.3318C32.48 18.7664 32.2295 18.1339 32.1085 17.4708C31.9875 16.8077 31.9984 16.1271 32.1406 15.4683L33.3596 9.84706C33.4966 9.18712 33.7623 8.56095 34.1415 8.00465C34.5206 7.44835 35.0056 6.97293 35.5686 6.60579C36.1316 6.23866 36.7613 5.98707 37.4215 5.86554C38.0818 5.74402 38.7594 5.75495 39.4154 5.89772L46.1922 7.3853C46.8493 7.52291 47.4728 7.78979 48.0267 8.17056C48.5806 8.55132 49.054 9.03845 49.4196 9.60383C49.7851 10.1692 50.0356 10.8017 50.1566 11.4648C50.2776 12.1279 50.2668 12.8085 50.1246 13.4673C50.0499 13.8164 49.8401 14.1215 49.5414 14.3153C49.2427 14.5091 48.8796 14.5758 48.532 14.5007C48.1844 14.4256 47.8806 14.215 47.6877 13.915C47.4947 13.615 47.4283 13.2504 47.503 12.9012C47.627 12.2778 47.5087 11.6303 47.1723 11.0917C46.8359 10.5531 46.307 10.1643 45.6941 10.005L38.9173 8.51745C38.6006 8.44776 38.2732 8.44155 37.9541 8.49916C37.6349 8.55678 37.3302 8.67709 37.0575 8.8532C36.7847 9.02931 36.5492 9.25775 36.3645 9.52544C36.1798 9.79313 36.0496 10.0948 35.9812 10.4131L34.7621 16.0344C34.6934 16.3562 34.6892 16.6885 34.7499 17.0119C34.8106 17.3353 34.9349 17.6434 35.1155 17.9179C35.2962 18.1925 35.5296 18.4282 35.802 18.6111C36.0744 18.794 36.3804 18.9205 36.7021 18.9832L43.4789 20.4708C44.1183 20.6079 44.7858 20.4856 45.3359 20.1305C45.8859 19.7754 46.2738 19.2163 46.4151 18.5751C46.4898 18.226 46.6996 17.921 46.9983 17.7272C47.2969 17.5333 47.66 17.4666 48.0077 17.5417C48.3553 17.6168 48.659 17.8275 48.852 18.1274C49.045 18.4274 49.1114 18.7921 49.0366 19.1412C48.7818 20.3002 48.1339 21.3344 47.2038 22.0668C46.2737 22.7991 45.1192 23.1843 43.9377 23.1564Z" fill="#606060"/>
<path d="M23.2141 65.6118H22.9388C22.6001 65.5362 22.3051 65.3289 22.1184 65.0353C21.9316 64.7416 21.8684 64.3856 21.9426 64.0452L31.708 19.1675L48.4206 22.8404L45.4975 36.2682C45.4228 36.6173 45.213 36.9223 44.9143 37.1161C44.6156 37.3099 44.2525 37.3766 43.9049 37.3016C43.5573 37.2265 43.2535 37.0158 43.0606 36.7159C42.8676 36.4159 42.8012 36.0512 42.8759 35.7021L45.2353 24.8414L33.648 22.3006L24.4724 64.6113C24.4027 64.8945 24.2413 65.1465 24.0135 65.3276C23.7858 65.5087 23.5046 65.6087 23.2141 65.6118Z" fill="#606060"/>
<path d="M32.6518 95.2583L15.9392 91.5985L20.4877 70.7328C20.5624 70.3837 20.7722 70.0787 21.0708 69.8848C21.3695 69.691 21.7326 69.6243 22.0803 69.6994C22.4279 69.7745 22.7316 69.9852 22.9246 70.2851C23.1176 70.5851 23.184 70.9498 23.1092 71.2989L19.1769 89.5975L30.6463 92.1514L41.9453 40.4545C41.9823 40.2816 42.0528 40.1177 42.1529 39.9722C42.253 39.8268 42.3806 39.7025 42.5285 39.6065C42.6764 39.5106 42.8416 39.4448 43.0148 39.413C43.188 39.3812 43.3658 39.3839 43.5379 39.4211C43.71 39.4582 43.8732 39.5291 44.0181 39.6296C44.1629 39.7301 44.2867 39.8583 44.3822 40.0068C44.4778 40.1553 44.5433 40.3213 44.5749 40.4952C44.6066 40.6692 44.6039 40.8477 44.5669 41.0206L32.6518 95.2583Z" fill="#606060"/>
<path d="M47.8528 20.3119L32.6526 16.9751C31.9666 16.8245 31.2889 17.2609 31.139 17.9499L30.1957 22.284C30.0457 22.973 30.4803 23.6536 31.1663 23.8042L46.3665 27.141C47.0525 27.2916 47.7302 26.8552 47.8801 26.1662L48.8234 21.8321C48.9734 21.1431 48.5388 20.4625 47.8528 20.3119Z" fill="white"/>
<path d="M48.958 25.5522L48.6959 26.737C48.6269 27.0391 48.4428 27.302 48.183 27.4694C47.9233 27.6367 47.6086 27.6952 47.3064 27.6322L31.9046 24.249C31.6039 24.1797 31.3421 23.9948 31.1755 23.7339C31.0088 23.473 30.9506 23.157 31.0133 22.8535L31.8653 18.9042C32.6367 19.8438 33.6211 20.5841 34.7359 21.0632C36.3967 21.8563 38.2192 22.2485 40.0578 22.2085C40.7787 22.2085 41.4865 22.0505 42.2075 22.011C44.9208 21.8267 47.8963 23.1036 48.958 25.5522Z" fill="#C2D0E1"/>
<path d="M22.3752 105C22.1791 105.021 21.9814 105.021 21.7853 105C21.3168 104.907 20.8824 104.688 20.5289 104.365C20.1755 104.043 19.9165 103.63 19.7798 103.17L16.1227 91.5591C16.0702 91.394 16.0506 91.2201 16.065 91.0474C16.0794 90.8747 16.1275 90.7065 16.2067 90.5525C16.2858 90.3984 16.3943 90.2616 16.5261 90.1497C16.6579 90.0378 16.8103 89.9531 16.9747 89.9003C17.1391 89.8476 17.3122 89.8279 17.4842 89.8424C17.6562 89.8568 17.8236 89.9052 17.977 89.9846C18.1304 90.0641 18.2666 90.1731 18.378 90.3055C18.4895 90.4378 18.5738 90.5909 18.6263 90.756L22.2834 102.314H22.4276L30.5545 93.3626C30.7892 93.1042 31.1164 92.9501 31.4643 92.934C31.8121 92.918 32.152 93.0414 32.4093 93.277C32.6665 93.5127 32.82 93.8414 32.836 94.1907C32.852 94.54 32.7291 94.8814 32.4945 95.1398L24.3676 104.092C24.1202 104.378 23.8141 104.608 23.4703 104.765C23.1264 104.921 22.7528 105.002 22.3752 105Z" fill="#606060"/>
<path d="M29.6108 55.4356H29.4666C29.2986 55.3978 29.1522 55.2951 29.059 55.1498C28.9658 55.0045 28.9333 54.8282 28.9685 54.6589L35.3913 25.0125C35.4094 24.9261 35.4443 24.844 35.4939 24.7711C35.5435 24.6982 35.607 24.6358 35.6806 24.5876C35.7543 24.5393 35.8367 24.506 35.9231 24.4897C36.0095 24.4734 36.0983 24.4744 36.1844 24.4925C36.2704 24.5107 36.3521 24.5457 36.4247 24.5955C36.4973 24.6454 36.5594 24.7091 36.6075 24.783C36.6556 24.857 36.6887 24.9397 36.7049 25.0265C36.7212 25.1134 36.7202 25.2025 36.7021 25.289L30.253 54.9091C30.2228 55.0577 30.1424 55.1914 30.0253 55.2873C29.9083 55.3833 29.7618 55.4357 29.6108 55.4356Z" fill="#606060"/>
<path d="M21.7591 91.559H21.6149C21.447 91.5211 21.3006 91.4184 21.2074 91.2731C21.1142 91.1278 21.0817 90.9515 21.1168 90.7823L27.5266 61.149C27.5631 60.9744 27.6672 60.8216 27.8159 60.724C27.9646 60.6265 28.1458 60.5923 28.3196 60.629C28.4935 60.6656 28.6457 60.7701 28.7428 60.9195C28.8399 61.0689 28.8739 61.2509 28.8374 61.4254L22.3883 91.0455C22.356 91.1896 22.2764 91.3186 22.1622 91.4117C22.0481 91.5048 21.9062 91.5567 21.7591 91.559Z" fill="#606060"/>
<path d="M27.6445 92.8491H27.5266C27.3586 92.8113 27.2122 92.7086 27.119 92.5633C27.0258 92.418 26.9933 92.2416 27.0285 92.0724L38.2488 40.5466C38.2865 40.3779 38.3887 40.2309 38.5335 40.1373C38.6782 40.0437 38.8537 40.011 39.0222 40.0464C39.1901 40.0842 39.3365 40.1869 39.4297 40.3322C39.5229 40.4775 39.5555 40.6538 39.5203 40.8231L28.2868 92.3357C28.254 92.482 28.1724 92.6126 28.0556 92.7059C27.9388 92.7993 27.7938 92.8498 27.6445 92.8491Z" fill="#606060"/>
<path d="M40.1495 35.4125H40.0053C39.8374 35.3747 39.691 35.272 39.5978 35.1267C39.5046 34.9814 39.4721 34.805 39.5072 34.6358L41.3161 26.329C41.3342 26.2426 41.369 26.1606 41.4187 26.0877C41.4683 26.0147 41.5318 25.9524 41.6054 25.9041C41.679 25.8558 41.7614 25.8226 41.8479 25.8062C41.9343 25.7899 42.0231 25.7909 42.1092 25.809C42.1952 25.8272 42.2769 25.8622 42.3495 25.912C42.4221 25.9619 42.4842 26.0256 42.5323 26.0996C42.5804 26.1735 42.6135 26.2563 42.6297 26.3431C42.6459 26.4299 42.645 26.519 42.6269 26.6055L40.818 34.8991C40.7843 35.0499 40.6989 35.184 40.5767 35.2778C40.4544 35.3717 40.3032 35.4194 40.1495 35.4125Z" fill="#606060"/>
<path d="M28.3131 75.63H28.1689C28.001 75.5922 27.8546 75.4895 27.7614 75.3442C27.6682 75.1988 27.6356 75.0225 27.6708 74.8533L34.0806 45.22C34.1171 45.0455 34.2211 44.8926 34.3698 44.7951C34.5186 44.6976 34.6998 44.6634 34.8736 44.7C35.0474 44.7367 35.1996 44.8412 35.2967 44.9906C35.3938 45.1399 35.4279 45.3219 35.3914 45.4965L28.9554 75.1034C28.9252 75.2521 28.8447 75.3857 28.7277 75.4817C28.6106 75.5776 28.4642 75.63 28.3131 75.63Z" fill="#606060"/>
<path d="M35.6535 41.8631H35.5224C35.3545 41.8252 35.2081 41.7225 35.1149 41.5772C35.0217 41.4319 34.9892 41.2556 35.0243 41.0863L38.2358 26.3289C38.2734 26.1603 38.3757 26.0133 38.5204 25.9197C38.6651 25.8261 38.8406 25.7934 39.0091 25.8287C39.1771 25.8665 39.3234 25.9692 39.4166 26.1145C39.5098 26.2599 39.5424 26.4362 39.5072 26.6054L36.2958 41.3496C36.2629 41.4959 36.1814 41.6265 36.0646 41.7198C35.9478 41.8132 35.8028 41.8637 35.6535 41.8631Z" fill="#606060"/>
<path d="M24.5773 92.7964H24.4331C24.2652 92.7586 24.1188 92.6559 24.0256 92.5106C23.9324 92.3652 23.8999 92.1889 23.935 92.0197L27.1596 77.2097C27.1961 77.0351 27.3001 76.8822 27.4488 76.7847C27.5976 76.6872 27.7788 76.653 27.9526 76.6897C28.1264 76.7263 28.2786 76.8308 28.3757 76.9802C28.4728 77.1295 28.5069 77.3115 28.4704 77.4861L25.2065 92.283C25.1742 92.4271 25.0945 92.556 24.9804 92.6491C24.8663 92.7422 24.7243 92.7941 24.5773 92.7964Z" fill="#606060"/>
<path d="M46.651 28.4746C46.468 28.494 46.2835 28.494 46.1005 28.4746L30.8953 25.0782C30.2287 24.9238 29.6486 24.5139 29.2788 23.9359C28.909 23.3579 28.7788 22.6576 28.916 21.9845L29.8598 17.6666C30.0135 16.9971 30.4217 16.4145 30.9972 16.0431C31.5727 15.6717 32.27 15.541 32.9401 15.6788L48.1322 19.0094C48.7988 19.1637 49.3789 19.5737 49.7487 20.1517C50.1185 20.7297 50.2487 21.43 50.1115 22.103L49.1677 26.421C49.0384 26.9972 48.7199 27.513 48.2634 27.8855C47.807 28.258 47.2391 28.4655 46.651 28.4746ZM32.3765 18.259L31.4589 22.5506L46.5986 25.8417L47.5292 21.5501L32.3765 18.259Z" fill="#606060"/>
<path d="M19.6356 100.076L24.2758 101.011L21.746 103.539L19.6356 100.076Z" fill="#606060"/>
</g>
<defs>
<clipPath id="clip0">
<rect width="69" height="105" rx="10" fill="white"/>
</clipPath>
</defs>
</svg>
