<svg width="30" height="30" viewBox="0 0 30 30" fill="none" xmlns="http://www.w3.org/2000/svg">
<path d="M-0.00012207 30L2.11869 22.2962C0.811232 20.0413 0.124219 17.485 0.125475 14.8637C0.129242 6.66875 6.82982 0 15.0627 0C19.0579 0.00125 22.8082 1.55 25.6291 4.36C28.4488 7.17 30.0011 10.905 29.9999 14.8775C29.9961 23.0738 23.2955 29.7425 15.0627 29.7425C12.5633 29.7413 10.1004 29.1175 7.91874 27.9325L-0.00012207 30ZM8.28548 25.2413C10.3905 26.485 12.4 27.23 15.0576 27.2313C21.9002 27.2313 27.4741 21.6887 27.4779 14.875C27.4804 8.0475 21.9328 2.5125 15.0677 2.51C8.22017 2.51 2.64997 8.0525 2.64745 14.865C2.6462 17.6462 3.46509 19.7287 4.84037 21.9075L3.58566 26.4675L8.28548 25.2413ZM22.5872 18.4113C22.4942 18.2563 22.2455 18.1637 21.8713 17.9775C21.4982 17.7913 19.6633 16.8925 19.3204 16.7687C18.9788 16.645 18.7301 16.5825 18.4802 16.955C18.2315 17.3263 17.5156 18.1637 17.2983 18.4113C17.081 18.6588 16.8625 18.69 16.4895 18.5037C16.1164 18.3175 14.9132 17.9263 13.4877 16.66C12.3787 15.675 11.6289 14.4587 11.4116 14.0863C11.1943 13.715 11.389 13.5138 11.5749 13.3288C11.7432 13.1625 11.9479 12.895 12.135 12.6775C12.3247 12.4625 12.3862 12.3075 12.5118 12.0588C12.6361 11.8113 12.5746 11.5938 12.4804 11.4075C12.3862 11.2225 11.6402 9.39375 11.3299 8.65C11.026 7.92625 10.7183 8.02375 10.4897 8.0125L9.7738 8C9.52512 8 9.1207 8.0925 8.77908 8.465C8.43746 8.8375 7.47287 9.735 7.47287 11.5638C7.47287 13.3925 8.81048 15.1587 8.99636 15.4062C9.1835 15.6537 11.6276 19.4062 15.3716 21.015C16.2621 21.3975 16.9579 21.6262 17.4992 21.7975C18.3935 22.08 19.2074 22.04 19.8504 21.945C20.5676 21.8387 22.0584 21.0462 22.3699 20.1787C22.6814 19.31 22.6814 18.5662 22.5872 18.4113Z" fill="white"/>
</svg>
